<?xml version="1.0" standalone="no"?>
<!DOCTYPE svg PUBLIC "-//W3C//DTD SVG 20010904//EN"
 "http://www.w3.org/TR/2001/REC-SVG-20010904/DTD/svg10.dtd">
<svg version="1.0" xmlns="http://www.w3.org/2000/svg"
 width="4000.000000pt" height="2668.000000pt" viewBox="0 0 4000.000000 2668.000000"
 preserveAspectRatio="xMidYMid meet">

<g transform="translate(0.000000,2668.000000) scale(0.100000,-0.100000)"
fill="#000000" stroke="none">
<path d="M0 13340 l0 -13340 20000 0 20000 0 0 13340 0 13340 -20000 0 -20000
0 0 -13340z m20103 3998 c66 -44 116 -137 117 -219 0 -40 -22 -178 -45 -279
-8 -36 -28 -126 -45 -200 -16 -74 -46 -193 -65 -265 -19 -71 -55 -209 -80
-307 -25 -97 -49 -188 -55 -203 -12 -31 -60 -241 -60 -262 0 -8 4 -12 9 -9 15
10 41 -5 42 -23 1 -14 2 -14 6 2 2 9 9 17 14 17 12 0 12 -27 -1 -35 -5 -3 -10
-16 -10 -29 0 -12 -5 -27 -12 -34 -9 -9 -9 -12 1 -12 9 0 9 -3 -1 -14 -8 -8
-25 -54 -37 -102 -31 -122 -37 -141 -56 -201 -9 -29 -14 -62 -10 -74 5 -14 4
-19 -4 -15 -7 5 -11 -9 -11 -44 0 -28 4 -49 9 -46 8 5 21 -104 24 -204 3 -81
69 -139 141 -126 102 19 191 142 431 591 60 113 140 248 172 290 5 6 22 30 38
55 52 78 184 222 196 214 5 -3 6 1 3 9 -5 15 106 125 161 158 38 24 96 24 125
1 13 -10 23 -33 27 -57 6 -47 -6 -63 -107 -142 -110 -87 -267 -263 -254 -285
4 -6 2 -8 -4 -4 -6 3 -18 -13 -28 -41 -10 -26 -31 -59 -46 -73 -15 -15 -28
-32 -28 -39 0 -6 -4 -11 -9 -11 -4 0 -25 -34 -46 -75 -20 -41 -41 -78 -46 -81
-5 -3 -9 -15 -9 -27 0 -15 11 -4 39 39 21 32 36 63 33 68 -3 5 -1 6 5 3 9 -6
63 44 63 60 0 5 20 31 45 58 49 54 46 35 -4 -29 -17 -21 -31 -45 -31 -52 0 -8
-7 -14 -16 -14 -11 0 -15 -6 -11 -20 3 -11 1 -18 -4 -14 -5 3 -9 -5 -9 -17 0
-12 -3 -19 -7 -16 -3 4 -12 -1 -19 -11 -17 -21 -18 -36 -2 -26 7 4 8 3 4 -4
-4 -7 -15 -12 -24 -12 -13 0 -14 -2 -4 -9 11 -6 -3 -31 -55 -104 -37 -52 -72
-93 -77 -89 -5 3 -6 0 -2 -7 4 -6 -12 -37 -38 -71 -25 -33 -46 -65 -46 -70 0
-6 -4 -10 -10 -10 -5 0 -7 8 -4 18 3 9 -3 4 -12 -13 -10 -16 -17 -36 -16 -42
2 -7 -2 -13 -8 -13 -5 0 -10 -7 -10 -15 0 -9 -7 -18 -15 -21 -8 -4 -12 -10 -9
-15 3 -5 2 -9 -3 -9 -4 -1 -23 -22 -42 -48 -18 -26 -51 -60 -72 -77 -21 -16
-38 -38 -39 -48 0 -11 4 -15 11 -11 7 4 10 2 8 -5 -7 -21 -24 -17 -27 5 l-3
22 -47 -23 c-26 -12 -54 -25 -62 -28 -11 -4 -10 -6 4 -6 14 -1 5 -13 -34 -48
-63 -57 -57 -51 -120 -133 -27 -36 -56 -73 -65 -82 -8 -10 -15 -20 -15 -22 0
-5 -47 -61 -81 -97 -14 -15 -33 -42 -42 -61 -12 -24 -17 -28 -17 -13 0 16 -4
14 -19 -11 -10 -17 -26 -31 -34 -31 -17 0 -14 9 10 36 8 9 29 39 46 66 17 28
35 55 39 60 42 53 118 168 118 178 0 8 -12 24 -26 38 -31 28 -59 88 -68 145
-10 57 -22 72 -24 28 -1 -20 -6 -42 -13 -50 -6 -7 -8 -18 -4 -24 3 -5 0 -22
-9 -37 -20 -39 -46 -99 -46 -110 -1 -4 -9 -26 -20 -48 -10 -22 -16 -43 -14
-47 3 -5 1 -8 -4 -8 -5 0 -17 -18 -27 -40 -10 -22 -31 -54 -47 -72 -16 -18
-33 -37 -36 -43 -27 -39 -145 -80 -205 -70 -60 10 -156 63 -141 78 3 3 -4 8
-15 12 -12 3 -19 10 -16 15 3 4 -2 21 -12 37 -22 39 -12 63 27 63 45 0 36 14
-17 29 -42 11 -97 43 -128 76 -24 25 -63 93 -69 122 -5 22 -14 33 -29 35 -19
3 -21 11 -25 79 -3 69 -2 77 16 81 15 4 20 17 25 59 3 30 9 70 12 89 l7 35
-24 -40 c-14 -22 -78 -114 -143 -205 -65 -91 -132 -185 -149 -210 -43 -62
-195 -219 -294 -302 -68 -58 -81 -74 -76 -92 3 -11 7 -25 8 -29 0 -5 -22 -9
-51 -10 -28 -1 -49 2 -46 7 3 5 -5 6 -18 3 -13 -3 -47 -9 -76 -13 -44 -5 -52
-10 -58 -31 -7 -30 1 -43 9 -15 8 25 75 40 87 20 7 -10 9 -9 9 5 0 11 5 15 11
11 14 -8 131 -8 187 2 36 6 42 4 42 -11 0 -10 3 -15 7 -12 4 4 18 -4 32 -17
19 -18 30 -23 41 -16 9 6 10 10 3 10 -7 0 -10 13 -9 32 2 23 9 34 27 40 37 14
229 214 284 298 28 41 67 97 87 125 21 27 38 55 38 61 0 6 7 17 15 24 13 11
15 8 15 -13 0 -15 13 -40 30 -59 34 -37 37 -48 14 -48 -8 0 -12 5 -9 10 3 6 1
10 -5 10 -6 0 -10 -6 -8 -14 3 -16 -102 -171 -182 -265 -60 -72 -136 -151
-144 -151 -3 0 -20 -14 -38 -30 -49 -45 -107 -80 -113 -70 -4 6 -3 15 0 20 9
14 -1 12 -36 -6 -17 -8 -55 -16 -85 -17 -30 -1 -54 -5 -54 -9 0 -4 -27 -6 -60
-6 -33 0 -63 -2 -67 -6 -3 -3 17 -6 45 -6 29 0 52 -4 52 -9 0 -22 -51 -164
-83 -231 -43 -91 -68 -132 -84 -143 -7 -4 -13 -13 -13 -20 0 -7 -18 -31 -39
-55 -21 -23 -42 -49 -45 -58 -3 -8 -10 -13 -15 -9 -6 3 -17 -5 -26 -19 -9 -13
-27 -27 -41 -30 -13 -4 -24 -12 -24 -19 0 -14 -49 -39 -61 -31 -5 3 -9 -2 -9
-10 0 -9 -3 -15 -7 -14 -5 1 -19 -2 -32 -6 -19 -7 -29 -4 -42 13 -9 11 -22 21
-28 21 -6 0 -11 6 -11 14 0 9 8 12 25 8 14 -2 25 0 25 6 0 5 10 12 23 16 36 9
49 19 127 96 93 92 203 279 232 395 18 73 15 83 -21 77 -16 -2 -32 1 -35 7
-11 17 -26 13 -20 -4 4 -8 3 -15 0 -15 -4 0 -11 10 -16 23 -7 17 -9 18 -9 5
-1 -10 -6 -18 -12 -18 -6 0 -9 7 -5 15 3 8 2 15 -2 15 -4 0 -28 -39 -52 -87
-151 -299 -350 -467 -552 -465 -37 0 -89 7 -115 16 -102 34 -196 134 -231 245
-18 60 -24 237 -10 339 l7 53 -22 -18 c-29 -23 -134 -137 -172 -187 -29 -38
-76 -94 -120 -141 -11 -12 -49 -55 -85 -96 -109 -124 -364 -375 -420 -412 -13
-10 -20 -17 -14 -17 5 0 20 7 32 16 25 17 23 21 27 -64 2 -29 0 -54 -4 -57 -4
-2 -26 1 -49 7 -48 12 -66 43 -36 65 9 7 15 15 12 18 -9 9 -58 -35 -74 -68 -9
-17 -26 -39 -38 -49 -18 -16 -16 -16 14 2 44 25 61 25 87 0 15 -13 23 -16 26
-7 3 9 8 9 20 -2 9 -7 26 -11 37 -8 11 3 18 1 14 -4 -3 -5 -3 -9 0 -9 2 0 12
-3 22 -7 12 -4 15 -3 10 5 -4 7 -3 12 3 12 10 0 26 -58 18 -66 -7 -7 -107 -6
-161 2 -36 5 -50 3 -57 -7 -8 -11 -9 -9 -7 6 2 16 -3 20 -29 19 -18 0 -33 4
-33 8 0 4 -8 8 -17 8 -15 1 -14 3 4 13 18 10 7 12 -70 12 l-91 0 -19 -50 c-55
-152 -172 -355 -254 -441 -21 -22 -45 -49 -53 -59 -14 -17 -13 -18 3 -12 10 4
16 3 12 -2 -3 -5 14 -23 37 -40 53 -39 111 -41 183 -7 49 24 135 97 135 115 0
6 6 14 13 18 23 15 114 169 109 186 -1 4 3 7 8 7 6 0 10 7 10 15 0 8 5 15 11
15 5 0 8 3 6 8 -3 4 3 25 14 46 10 21 22 54 25 73 8 41 17 46 69 35 31 -6 40
-13 38 -28 -2 -36 -12 -66 -32 -100 -14 -22 -16 -34 -8 -34 8 0 7 -3 -2 -9 -8
-5 -16 -18 -17 -28 -2 -9 -8 -19 -13 -21 -6 -2 -11 -12 -11 -23 0 -10 -9 -28
-20 -39 -11 -11 -20 -23 -20 -26 0 -3 -14 -25 -30 -50 -17 -24 -29 -44 -26
-44 2 0 -9 -13 -25 -30 -18 -17 -27 -35 -23 -41 4 -7 3 -9 -3 -6 -6 4 -27 -11
-48 -34 -21 -23 -42 -38 -50 -35 -8 3 -12 0 -9 -7 3 -8 -13 -23 -36 -36 -22
-12 -40 -19 -40 -15 0 3 -11 -1 -24 -9 -17 -12 -26 -13 -35 -4 -8 8 -11 8 -11
0 0 -17 -80 -21 -130 -6 -52 16 -140 72 -140 91 0 17 -22 15 -72 -5 -29 -12
-71 -18 -128 -18 -74 0 -93 4 -144 29 -56 28 -59 28 -70 10 -6 -11 -16 -28
-23 -39 -7 -11 -17 -30 -22 -42 -6 -13 -15 -23 -21 -23 -6 0 -10 -6 -9 -12 4
-20 -56 -139 -65 -131 -4 5 -5 -4 -1 -20 5 -17 3 -27 -4 -27 -6 0 -11 -6 -11
-13 0 -7 -9 -30 -20 -52 -11 -22 -20 -47 -20 -56 0 -10 -3 -19 -7 -21 -12 -5
-47 -82 -83 -178 -17 -47 -36 -97 -42 -112 -5 -15 -18 -34 -29 -44 -10 -9 -19
-21 -19 -26 0 -12 -52 -57 -66 -58 -25 0 -84 -92 -84 -131 0 -12 5 -16 15 -13
11 5 15 -2 15 -26 0 -18 7 -59 15 -91 9 -32 17 -80 20 -106 6 -72 25 -216 31
-224 2 -4 6 -24 9 -45 2 -22 9 -77 15 -124 5 -46 10 -86 10 -87 0 -2 -6 -3
-12 -3 -7 0 -22 14 -33 31 -11 17 -32 37 -47 45 -22 12 -29 24 -35 67 -4 28
-7 58 -7 65 1 6 -2 12 -6 12 -4 0 -11 28 -15 63 -4 34 -9 69 -10 77 -2 8 -8
41 -14 72 -5 32 -15 66 -20 75 -9 15 -10 14 -11 -9 0 -16 -4 -28 -10 -28 -5 0
-10 -5 -10 -11 0 -5 5 -7 10 -4 6 4 10 -21 10 -68 0 -59 -3 -76 -16 -81 -8 -3
-13 -9 -11 -13 3 -5 1 -17 -4 -28 -7 -19 -8 -19 -8 2 -1 12 -13 39 -27 60 -33
49 -38 53 -29 24 5 -16 4 -21 -4 -17 -6 4 -11 13 -11 21 0 7 -12 18 -27 24
-21 8 -22 10 -5 7 24 -5 30 12 10 32 -9 9 -9 12 -1 12 8 0 10 12 6 34 -5 33
17 154 39 211 7 17 23 47 36 67 13 20 21 42 17 47 -3 6 -1 11 4 11 6 0 11 12
11 28 0 21 -2 24 -10 12 -9 -13 -10 -13 -11 0 -2 33 -10 71 -24 111 -8 22 -13
45 -10 49 3 5 1 11 -5 15 -5 3 -10 16 -10 28 0 12 -6 34 -14 48 -7 14 -13 44
-12 67 0 23 -2 38 -6 34 -16 -17 -50 -137 -69 -242 -30 -174 -62 -277 -119
-390 l-31 -61 20 -112 c12 -62 23 -137 27 -167 10 -82 19 -88 63 -41 18 19 32
27 41 21 15 -9 5 -30 -15 -30 -7 0 -12 -8 -10 -17 6 -43 77 1 91 57 11 42 17
45 30 15 10 -24 9 -37 -4 -70 -18 -46 -30 -57 -54 -51 -10 2 -18 0 -18 -4 0
-5 -19 -8 -42 -7 -36 2 -44 6 -46 25 -2 12 -8 22 -14 22 -6 0 -8 -10 -4 -22 3
-13 8 -41 11 -63 4 -34 3 -35 -4 -10 -6 22 -10 26 -15 15 -10 -23 7 -123 22
-128 9 -3 10 3 2 23 -5 14 -10 31 -10 36 0 12 47 12 54 0 4 -5 -3 -7 -14 -4
-19 5 -20 2 -16 -43 3 -27 5 -66 5 -88 l1 -38 35 6 c32 6 51 -7 24 -16 -6 -2
-13 -21 -16 -43 -2 -21 -8 -44 -12 -50 -5 -5 -10 -70 -10 -142 -1 -73 -6 -158
-11 -190 -6 -37 -6 -61 0 -67 6 -6 10 -19 9 -30 -1 -18 -2 -17 -8 4 -6 21 -11
12 -25 -50 -48 -211 -129 -341 -244 -396 -47 -22 -64 -25 -110 -20 -136 16
-211 105 -253 301 -20 91 -16 427 5 545 23 129 51 240 82 330 14 41 32 104 40
139 17 73 40 122 89 190 19 26 52 84 75 129 35 72 39 87 33 129 -4 28 -9 40
-12 31 -3 -10 -6 16 -7 56 -1 42 -7 85 -16 103 -8 16 -14 40 -12 54 2 23 -19
158 -29 189 -3 8 -8 27 -11 43 -5 23 -12 27 -39 27 -19 0 -44 -10 -62 -24 -25
-20 -29 -29 -26 -65 1 -25 -2 -41 -9 -41 -6 0 -10 6 -9 13 1 6 1 23 0 36 -1
20 -3 22 -17 10 -8 -7 -13 -21 -10 -31 3 -13 -3 -22 -19 -30 -15 -7 -21 -16
-18 -29 4 -14 1 -18 -9 -14 -7 3 -22 -1 -33 -10 -17 -13 -18 -16 -5 -25 11 -9
7 -10 -17 -5 -25 5 -47 -1 -95 -24 -179 -88 -352 -41 -426 116 -23 50 -27 70
-26 153 0 80 5 109 32 187 130 379 430 663 763 723 111 20 169 -8 169 -83 0
-38 -5 -46 -62 -97 -34 -30 -96 -90 -139 -134 -42 -43 -90 -87 -106 -97 -25
-17 -26 -19 -7 -19 11 0 31 -11 44 -25 12 -13 26 -22 30 -20 5 3 11 -3 15 -13
5 -13 -17 -39 -91 -109 -54 -50 -102 -89 -106 -87 -4 3 -8 -1 -8 -9 0 -22 -35
-48 -56 -41 -13 4 -15 3 -6 -3 9 -7 -1 -22 -38 -57 -46 -43 -50 -45 -51 -24 0
22 -1 22 -8 3 -5 -11 -7 -23 -5 -26 2 -3 -10 -19 -26 -34 -17 -16 -30 -25 -30
-21 0 5 9 17 20 26 18 15 18 19 5 24 -9 3 -13 2 -10 -4 5 -9 -7 -14 -27 -11
-6 1 -26 -22 -56 -65 -7 -11 -10 -14 -7 -7 3 7 -2 9 -15 6 -11 -3 -20 -4 -20
-1 0 9 87 95 103 101 9 3 17 12 17 19 0 7 16 27 35 43 19 17 35 35 35 42 0 6
6 13 13 16 6 2 9 8 5 11 -3 4 -24 -10 -45 -31 -97 -95 -157 -144 -170 -139
-22 9 -36 -36 -29 -88 10 -67 51 -106 110 -106 63 0 119 27 112 55 -8 32 83
120 114 110 17 -5 32 4 75 45 55 52 123 89 161 90 20 0 20 3 13 51 -5 30 -4
71 2 98 25 119 155 157 224 67 33 -43 34 -130 4 -210 -16 -44 -18 -64 -11 -98
l8 -43 32 60 c17 33 31 52 32 43 0 -9 -13 -40 -30 -68 -16 -28 -30 -56 -30
-63 0 -7 13 -64 30 -127 16 -63 30 -127 30 -142 0 -16 4 -28 9 -28 14 0 20 66
15 153 -6 81 -5 83 49 217 30 74 89 203 130 285 105 211 127 260 127 278 0 10
3 17 8 17 4 0 34 51 66 113 75 145 111 203 124 200 6 -2 9 3 6 10 -6 16 172
276 229 335 23 24 71 57 107 73 36 17 79 37 95 45 23 12 34 27 48 71 28 88 92
214 133 262 67 77 148 93 207 41 19 -17 37 -42 40 -57 8 -43 -20 -130 -62
-191 -42 -61 -143 -179 -172 -200 -42 -29 -121 -366 -103 -436 8 -34 24 -23
25 17 0 18 3 26 6 19 3 -8 17 5 35 33 16 25 35 45 41 45 6 0 8 3 4 6 -3 3 7
20 23 38 25 27 35 31 70 28 22 -2 42 -8 45 -12 6 -10 -15 -60 -25 -60 -9 0
-90 -108 -90 -119 0 -5 -7 -11 -15 -15 -8 -3 -15 -12 -15 -21 0 -8 -13 -29
-29 -45 -35 -37 -32 -57 16 -90 42 -29 121 -33 167 -8 28 15 30 19 27 72 -2
55 15 202 27 221 4 6 7 15 8 22 4 22 26 85 40 111 8 15 14 32 14 38 0 6 15 17
33 24 17 6 40 16 49 21 27 14 53 12 41 -3 -6 -7 -13 -30 -17 -50 -4 -20 -10
-38 -15 -40 -8 -3 -39 -134 -46 -198 -3 -19 -7 -41 -11 -50 -4 -8 -8 -24 -9
-34 -1 -11 -7 -22 -13 -24 -7 -2 -12 -8 -12 -13 0 -22 25 8 81 95 33 50 59 94
59 98 0 3 13 35 29 70 16 35 38 86 49 115 l19 51 -64 21 c-65 22 -103 27 -103
14 0 -5 -11 -9 -25 -9 -35 -2 -31 12 7 25 31 11 31 11 12 34 -10 12 -24 25
-30 29 -6 4 -24 36 -39 70 -54 119 -44 235 28 308 119 122 306 80 389 -88 30
-60 33 -76 37 -174 2 -60 7 -108 13 -108 5 0 35 22 66 49 31 26 85 67 119 90
57 38 177 144 260 229 18 18 37 31 43 27 5 -3 8 0 5 7 -3 7 30 48 76 93 45 44
79 72 75 62 -3 -11 -2 -16 5 -12 5 4 7 15 4 26 -5 14 0 21 18 28 14 6 28 15
33 22 4 8 3 10 -4 5 -8 -5 -10 -1 -6 9 4 9 12 14 19 11 15 -5 100 96 100 119
0 22 94 142 138 177 20 16 52 37 71 46 18 10 70 50 115 91 63 57 91 92 126
156 84 154 135 205 203 205 66 0 111 -57 103 -130 -4 -35 -44 -91 -128 -179
-59 -61 -78 -90 -102 -151 -35 -89 -57 -173 -66 -252 -3 -32 -11 -58 -16 -58
-5 0 -8 -21 -5 -47 3 -27 5 -56 5 -65 1 -10 5 -18 10 -18 6 0 7 27 4 65 -5 63
-5 65 17 65 22 0 22 -1 7 -18 -21 -23 -21 -32 -2 -32 9 0 15 -9 15 -22 0 -19
-2 -20 -10 -8 -8 12 -10 9 -10 -13 0 -16 4 -26 10 -22 6 3 10 1 10 -4 0 -6 -7
-11 -16 -11 -11 0 -14 -6 -8 -22 27 -86 67 -130 134 -148 151 -41 371 164 478
448 l19 49 -60 18 c-116 35 -223 177 -234 311 -10 111 37 193 134 240 89 42
175 26 263 -48 54 -45 110 -167 110 -239 0 -18 4 -28 10 -24 6 3 10 1 10 -4 0
-6 -4 -11 -10 -11 -5 0 -10 -18 -10 -40 0 -31 4 -40 18 -40 21 0 37 11 44 30
3 8 46 42 94 75 98 66 205 170 292 285 31 41 63 81 69 88 7 7 13 17 13 22 0 5
6 15 13 22 15 14 93 142 158 258 49 87 126 167 228 234 78 52 113 84 180 165
59 71 147 134 221 159 71 24 119 20 151 -14 18 -20 21 -31 17 -80 -4 -48 -10
-61 -39 -88 -19 -17 -46 -37 -59 -45 -14 -8 -71 -41 -127 -73 -109 -63 -111
-66 -164 -200 -21 -55 -7 -57 16 -2 15 37 38 64 53 64 6 0 25 18 43 40 18 22
37 40 42 40 4 0 33 16 63 35 30 19 63 35 74 35 10 0 21 4 25 9 3 6 25 13 49
16 37 6 45 11 51 33 3 14 1 113 -6 221 -11 188 -8 538 7 744 6 76 5 87 -9 87
-19 0 -31 16 -21 31 5 8 9 7 14 -1 4 -7 15 -10 24 -7 13 5 16 20 15 69 -4 176
107 718 182 887 38 86 101 147 179 172 40 13 127 1 163 -23z m47 -798 c0 -5
-4 -10 -10 -10 -5 0 -10 5 -10 10 0 6 5 10 10 10 6 0 10 -4 10 -10z m46 -31
c17 -7 17 -8 -4 -8 -18 -1 -22 -5 -17 -20 3 -12 0 -21 -10 -25 -8 -3 -15 -11
-14 -18 0 -10 2 -10 6 0 7 17 43 15 43 -3 0 -8 -4 -15 -10 -15 -5 0 -10 5 -10
12 0 6 -3 8 -7 5 -3 -4 2 -16 12 -27 14 -16 16 -23 7 -32 -7 -7 -12 -29 -12
-50 0 -21 -4 -38 -10 -38 -5 0 -7 -7 -4 -15 4 -8 3 -23 -1 -32 -9 -20 -11 -30
-21 -93 -4 -25 -10 -49 -14 -55 -4 -5 -12 -37 -19 -70 -11 -52 -46 -191 -83
-330 -5 -22 -14 -50 -19 -63 -5 -13 -9 -31 -9 -42 0 -27 -20 -36 -27 -11 -3
12 -19 25 -39 31 -19 7 -32 15 -29 20 3 5 0 10 -6 12 -12 4 18 118 32 118 4 0
10 16 14 36 3 20 12 50 20 68 14 32 64 205 70 241 6 38 17 65 27 65 5 0 6 5 3
11 -9 13 4 101 13 95 4 -2 8 9 9 25 4 55 7 69 15 69 4 0 8 21 8 48 0 32 3 42
9 33 7 -10 8 0 6 30 -3 24 -2 37 1 27 6 -18 34 -33 34 -18 0 6 -4 10 -10 10
-5 0 -10 5 -10 11 0 5 5 7 10 4 6 -3 10 4 11 17 0 21 1 21 8 4 4 -11 16 -23
27 -27z m-629 -155 c-3 -3 -12 -4 -19 -1 -8 3 -5 6 6 6 11 1 17 -2 13 -5z
m-11 -69 c-21 -16 -32 -13 -21 4 3 6 14 11 23 11 15 -1 15 -2 -2 -15z m1260
-841 c-4 -9 -9 -15 -11 -12 -3 3 -3 13 1 22 4 9 9 15 11 12 3 -3 3 -13 -1 -22z
m-619 -16 c-3 -7 -5 -2 -5 12 0 14 2 19 5 13 2 -7 2 -19 0 -25z m-3117 -23 c0
-7 -30 -13 -34 -7 -3 4 4 9 15 9 10 1 19 0 19 -2z m3070 -161 c0 -8 -4 -12
-10 -9 -5 3 -10 10 -10 16 0 5 5 9 10 9 6 0 10 -7 10 -16z m-15 -63 c0 -16 -3
-27 -7 -24 -5 2 -9 -8 -9 -24 -1 -19 -3 -22 -6 -10 -6 23 5 87 15 87 4 0 7
-13 7 -29z m-1065 -4 c0 -2 -10 -12 -21 -23 -22 -19 -22 -19 -8 4 12 19 29 30
29 19z m1067 -79 c-3 -8 -6 -5 -6 6 -1 11 2 17 5 13 3 -3 4 -12 1 -19z m1288
1 c55 -15 146 -108 169 -174 27 -76 31 -210 11 -365 -16 -133 -64 -391 -85
-460 -6 -19 -12 -64 -15 -99 -3 -35 -10 -70 -16 -77 -7 -9 -7 -19 1 -34 11
-21 5 -44 -10 -35 -5 3 -8 -10 -7 -30 2 -40 12 -46 21 -12 5 19 8 20 17 7 8
-12 10 -8 6 15 -3 17 -8 39 -11 50 -4 11 1 4 10 -15 8 -18 13 -46 10 -61 -5
-24 -3 -26 28 -23 29 2 33 -1 29 -17 -5 -19 -3 -20 57 -23 14 -1 24 -6 23 -13
-2 -7 4 -13 12 -13 8 0 15 -4 15 -10 0 -5 -4 -10 -10 -10 -5 0 -10 -10 -9 -22
0 -13 3 -17 6 -10 7 18 46 14 65 -7 9 -10 35 -22 58 -26 37 -6 40 -8 23 -21
-10 -7 -28 -14 -40 -14 -38 0 -26 -17 21 -30 25 -7 53 -21 62 -31 22 -25 37
-24 29 1 -5 14 -2 20 9 20 9 0 16 -8 16 -17 0 -13 3 -14 12 -5 9 9 7 16 -7 32
-16 17 -16 20 -2 20 9 0 19 -5 22 -11 4 -6 13 -8 20 -5 7 2 16 2 19 -2 13 -12
46 -8 46 6 0 16 22 11 28 -6 2 -7 -3 -12 -12 -12 -9 0 -16 -4 -16 -10 0 -5 -5
-10 -11 -10 -5 0 -7 5 -4 10 3 6 1 10 -4 10 -6 0 -11 -9 -11 -20 0 -11 4 -20
9 -20 5 0 21 -20 35 -44 37 -63 44 -63 41 -1 -1 31 -1 54 1 53 1 -2 2 -7 3
-11 0 -5 8 -16 18 -25 23 -22 27 -48 8 -56 -28 -10 -16 -27 18 -24 25 2 36 -3
50 -22 l19 -25 -6 30 c-5 21 -4 26 3 15 14 -21 25 -5 12 18 -6 12 -11 27 -10
34 0 10 2 10 6 1 2 -7 11 -13 19 -13 11 0 13 -7 8 -27 -6 -25 -5 -26 8 -15 11
9 18 10 23 2 3 -5 -1 -11 -9 -11 -9 -1 -22 -2 -28 -3 -16 -1 -40 -70 -27 -74
5 -2 9 -15 9 -28 0 -15 6 -24 15 -24 17 0 38 -43 24 -48 -19 -7 -8 -20 12 -15
19 5 149 188 149 209 0 18 56 77 84 90 17 7 26 13 19 14 -25 0 64 234 102 265
6 6 20 35 30 65 20 64 88 198 116 232 59 69 121 123 174 151 54 28 69 32 145
32 68 0 93 -5 125 -22 147 -79 200 -253 134 -437 -16 -44 -37 -92 -47 -106
-11 -14 -26 -38 -35 -55 -8 -16 -24 -39 -34 -50 -10 -12 -34 -41 -53 -65 -19
-25 -50 -62 -70 -84 -19 -21 -34 -42 -32 -47 1 -5 -4 -9 -11 -9 -7 0 -21 -10
-31 -22 -18 -20 -18 -22 -1 -34 48 -35 256 -30 376 10 81 26 183 78 259 129
47 33 177 145 222 193 15 16 47 50 72 76 24 26 47 44 52 40 4 -4 4 -2 1 4 -4
6 5 21 18 34 20 19 22 26 13 43 -9 17 -8 19 6 14 12 -5 31 6 62 35 24 23 42
43 40 45 -4 4 16 28 72 89 17 20 32 40 32 46 0 6 -8 0 -18 -12 -21 -27 -48
-22 -89 16 -14 13 -32 24 -40 24 -8 0 -11 5 -8 10 3 6 2 10 -3 10 -14 0 -82
72 -82 86 0 6 -7 17 -15 24 -9 7 -14 19 -11 27 3 7 1 13 -4 13 -14 0 -12 18 2
34 11 11 16 8 30 -15 13 -22 25 -29 49 -29 17 0 43 -10 59 -22 31 -26 111 -74
124 -75 5 -1 12 -7 16 -13 10 -16 59 18 60 40 1 21 30 59 30 39 0 -8 -5 -20
-12 -27 -7 -7 -8 -12 -2 -12 13 1 47 50 35 50 -6 0 -8 7 -4 16 3 8 12 13 20 9
11 -4 13 -1 9 10 -3 9 -2 13 3 10 5 -3 12 -1 15 4 4 5 -11 20 -31 32 -21 13
-54 38 -74 56 -36 32 -38 33 -90 23 -29 -6 -56 -7 -60 -3 -4 5 -11 47 -16 96
-7 69 -6 87 4 83 9 -4 10 3 5 27 -4 18 -7 64 -7 102 1 125 68 231 180 286 56
27 75 32 142 31 129 0 222 -56 303 -181 33 -52 44 -60 55 -40 4 6 14 8 22 5 9
-4 21 -2 27 3 15 12 103 30 132 26 13 -1 24 1 24 5 0 4 19 10 42 13 24 3 44
11 46 16 8 23 38 9 55 -25 23 -46 22 -56 -9 -83 -14 -12 -24 -24 -22 -26 2 -3
42 32 88 75 91 85 99 107 16 38 -28 -23 -48 -38 -44 -33 4 4 3 14 -3 21 -9 10
-7 15 4 20 9 3 13 12 10 21 -5 12 -1 14 17 8 14 -4 20 -3 16 3 -3 5 13 18 37
27 23 9 66 39 95 67 47 44 57 50 84 44 43 -8 65 -30 73 -72 9 -49 -2 -63 -177
-237 -140 -140 -152 -155 -203 -255 -30 -59 -67 -130 -84 -158 l-29 -50 44
-27 c25 -15 49 -27 54 -27 4 0 10 -3 12 -8 2 -4 23 -23 48 -42 139 -108 229
-269 234 -424 2 -56 5 -70 17 -67 37 10 109 3 109 -11 0 -6 9 -21 19 -32 11
-12 22 -37 26 -57 5 -29 2 -41 -19 -66 -14 -17 -38 -33 -54 -36 -36 -7 -98 13
-117 39 -8 10 -15 13 -15 7 0 -22 -66 -117 -111 -161 -52 -50 -159 -109 -217
-118 -42 -7 -107 -46 -95 -57 3 -4 1 -7 -5 -7 -6 0 -17 -6 -24 -14 -42 -42
-177 -87 -265 -88 -40 0 -121 19 -138 34 -12 11 -25 10 -25 -2 0 -5 7 -10 15
-10 8 0 15 -3 15 -8 0 -4 12 -15 27 -24 l28 -17 -28 -10 c-16 -6 -41 -11 -56
-11 -30 0 -92 41 -103 68 -11 29 -9 102 3 102 8 0 8 4 0 14 -6 8 -11 18 -10
22 1 5 -3 22 -10 38 -6 16 -10 35 -7 42 3 8 1 16 -4 19 -17 10 -11 126 10 213
11 46 20 96 20 112 0 16 5 32 11 35 6 4 8 13 5 21 -3 7 -1 16 5 20 6 3 21 30
35 60 13 30 29 54 34 54 6 0 10 6 10 14 0 8 6 21 13 28 33 33 28 46 -29 64
-30 9 -57 21 -60 25 -9 15 -22 10 -44 -13 l-21 -23 27 -21 c19 -16 24 -27 19
-43 -9 -29 -25 -27 -25 4 0 36 -43 45 -75 15 -13 -12 -21 -28 -18 -36 4 -10 0
-12 -11 -8 -11 4 -30 -9 -61 -42 -25 -27 -45 -52 -45 -56 0 -16 27 5 53 42 31
44 47 51 47 20 0 -11 -5 -20 -11 -20 -6 0 -9 -8 -6 -19 3 -14 -4 -22 -29 -31
-18 -8 -31 -16 -30 -19 2 -3 -9 -6 -25 -7 -23 -1 -42 -15 -86 -65 -109 -122
-248 -256 -333 -320 -47 -35 -92 -70 -100 -77 -8 -7 -35 -31 -60 -52 -24 -22
-48 -40 -53 -40 -5 0 -26 -14 -47 -30 -61 -48 -284 -140 -341 -140 -14 0 -28
-3 -32 -6 -10 -10 -105 -11 -187 -2 -88 10 -205 51 -239 85 -13 13 -27 21 -30
18 -3 -4 0 -10 7 -14 7 -4 17 -21 21 -37 7 -26 4 -33 -31 -67 -22 -20 -43 -35
-48 -32 -4 3 -10 -1 -13 -9 -7 -17 -58 -12 -106 12 -34 16 -36 19 -35 67 1 27
7 51 13 53 6 2 11 10 11 17 0 19 65 65 93 65 20 0 24 4 20 19 -4 16 -16 20
-64 23 -54 3 -61 1 -79 -24 -11 -15 -20 -32 -20 -38 0 -5 -7 -10 -15 -10 -8 0
-15 -6 -15 -14 0 -8 -7 -17 -16 -20 -9 -3 -12 -11 -8 -18 5 -8 2 -9 -10 -5
-11 5 -29 -6 -58 -33 -40 -39 -40 -41 -23 -60 21 -23 13 -39 -10 -20 -13 11
-20 9 -43 -12 -101 -94 -115 -108 -99 -102 14 5 16 2 10 -12 -13 -36 -90 -94
-101 -78 -9 12 -62 13 -55 1 8 -14 -18 -27 -54 -27 -26 0 -30 -3 -26 -20 3
-11 2 -20 -2 -20 -13 0 -44 45 -45 65 -1 18 -2 18 -10 -3 -5 -12 -7 -29 -4
-37 4 -8 2 -15 -4 -15 -6 0 -14 -15 -17 -32 -9 -39 -61 -204 -74 -233 -52
-114 -79 -165 -95 -176 -5 -4 -5 -12 -1 -19 5 -8 4 -11 -2 -7 -6 4 -16 0 -23
-8 -7 -8 -9 -15 -5 -15 3 0 -3 -12 -14 -26 -12 -15 -21 -34 -21 -42 0 -8 -2
-13 -5 -10 -3 2 -26 -15 -51 -39 -26 -24 -55 -43 -65 -43 -11 0 -19 -4 -19
-10 0 -5 -8 -10 -18 -10 -10 0 -23 -5 -29 -11 -15 -15 -188 -16 -206 -1 -7 7
-16 9 -20 6 -9 -9 -117 75 -136 107 -10 16 -21 26 -25 22 -4 -4 -4 0 0 10 3
10 1 17 -5 17 -6 0 -11 7 -11 15 0 8 -4 15 -8 15 -12 0 -34 68 -27 80 4 6 1 9
-7 8 -9 -2 -12 8 -11 37 1 30 -1 35 -7 20 -7 -17 -9 -14 -9 13 -1 19 -5 31
-11 27 -5 -3 -10 -1 -10 4 0 6 5 11 11 11 8 0 8 4 1 13 -6 7 -16 52 -23 100
l-12 87 -64 -97 c-35 -54 -66 -108 -69 -120 -4 -13 -12 -23 -20 -23 -7 0 -16
-11 -20 -25 -3 -14 -9 -25 -13 -25 -4 0 -19 -17 -32 -37 -14 -21 -54 -80 -90
-132 -85 -125 -98 -143 -106 -160 -3 -8 -13 -22 -21 -30 -7 -9 -48 -63 -89
-121 -42 -58 -90 -121 -107 -141 -35 -41 -74 -91 -126 -158 -65 -84 -140 -155
-153 -142 -6 6 -15 11 -21 11 -5 0 -1 -6 10 -14 10 -8 16 -18 12 -22 -5 -4
-17 1 -28 11 -11 10 -20 13 -20 8 0 -6 8 -14 18 -18 16 -6 16 -7 -2 -21 -11
-8 -28 -14 -39 -14 -11 0 -15 -4 -11 -12 5 -7 2 -9 -8 -5 -9 3 -19 2 -24 -2
-5 -5 -22 -11 -39 -15 l-30 -6 25 15 c33 19 19 19 -27 0 -86 -36 -201 -7 -279
70 -78 78 -94 131 -104 340 -8 182 -20 241 -56 280 -41 44 -93 29 -165 -47
-27 -28 -51 -60 -55 -70 -3 -10 -9 -18 -13 -18 -5 0 -33 -36 -62 -80 -30 -44
-61 -80 -69 -80 -20 0 -94 -96 -85 -110 4 -6 -13 -29 -37 -51 l-43 -40 36 6
c23 4 39 3 43 -4 5 -7 -1 -10 -16 -8 -24 2 -38 -27 -21 -44 12 -12 64 13 58
29 -2 7 4 12 15 12 25 0 25 -11 0 -40 -11 -13 -20 -18 -20 -12 0 7 -5 12 -11
12 -6 0 -8 -7 -5 -16 6 -16 -30 -52 -46 -47 -4 2 -4 -5 -1 -14 4 -11 3 -14 -5
-9 -8 4 -12 0 -12 -10 0 -36 -18 2 -24 51 -3 30 -2 44 3 36 6 -9 9 -6 9 13 0
14 -3 26 -6 26 -3 0 -34 -30 -70 -67 -182 -189 -231 -236 -269 -260 -24 -14
-43 -28 -43 -33 0 -25 -34 -193 -54 -272 -25 -94 -74 -237 -99 -286 -8 -15
-21 -43 -29 -62 -25 -58 -43 -95 -48 -100 -3 -3 -18 -31 -35 -64 -16 -32 -36
-61 -43 -64 -8 -2 -17 -15 -22 -27 -7 -18 -14 -21 -39 -17 -26 3 -29 7 -20 18
8 10 8 14 1 14 -8 0 -8 8 -3 23 5 12 14 21 19 20 6 -2 10 5 10 15 -1 20 5 45
12 52 11 11 98 201 140 305 48 122 58 159 91 335 6 30 12 62 14 70 2 8 4 23 4
33 1 9 9 17 19 18 19 1 -53 27 -79 28 -12 1 -19 -21 -33 -101 -37 -215 -80
-356 -178 -578 -81 -185 -124 -258 -184 -316 -55 -53 -121 -84 -179 -84 -29 0
-45 -4 -46 -12 0 -10 -2 -10 -6 0 -3 7 -20 19 -38 26 -49 21 -123 93 -150 147
-24 46 -52 148 -61 224 -3 22 -9 51 -14 65 -5 14 -11 43 -15 65 -13 86 -66
234 -102 289 -41 60 -81 94 -156 132 -57 29 -73 61 -57 110 13 38 53 74 83 74
65 0 251 -150 297 -239 12 -24 31 -53 42 -65 34 -36 92 -166 93 -206 0 -36 1
-37 33 -33 29 4 32 2 32 -22 0 -23 -2 -26 -15 -15 -9 7 -15 8 -15 2 0 -5 6
-12 14 -15 7 -3 16 -22 20 -41 3 -20 9 -53 12 -73 4 -21 10 -43 15 -49 5 -6 7
-19 3 -28 -3 -9 -2 -16 3 -16 5 0 10 -17 11 -37 6 -78 7 -88 17 -95 6 -4 2 -8
-7 -8 -10 0 -18 -4 -18 -10 0 -5 12 -10 27 -10 43 0 95 69 172 225 118 239
184 446 212 664 l13 93 -30 22 c-71 51 -94 91 -94 162 0 91 105 153 187 111
46 -24 90 -81 98 -125 6 -36 9 -40 59 -55 59 -19 83 -21 88 -9 2 5 52 50 111
102 103 89 337 333 337 352 0 20 169 256 221 309 87 87 195 119 300 87 54 -16
111 -67 155 -139 20 -33 47 -71 59 -83 42 -42 57 -115 60 -304 3 -148 1 -171
-11 -161 -8 6 -14 8 -14 4 0 -16 36 -34 68 -35 80 0 261 181 452 455 36 52 77
107 93 124 15 17 27 33 27 36 0 3 38 64 85 134 77 117 103 160 183 301 29 51
133 212 142 220 4 3 24 32 45 65 22 33 42 62 45 65 3 3 20 28 37 55 l32 50 5
235 c3 129 13 309 21 400 29 309 29 311 15 308 -10 -2 -12 13 -11 62 2 54 6
68 26 85 19 17 25 39 40 150 9 72 23 168 32 215 8 47 18 113 23 146 22 146 63
330 83 373 60 127 201 196 332 160z m-1331 -84 c3 -8 1 -15 -4 -15 -6 0 -10 7
-10 15 0 8 2 15 4 15 2 0 6 -7 10 -15z m-229 -103 c-6 -7 -34 11 -29 19 3 5
11 3 19 -4 7 -6 12 -13 10 -15z m0 -72 c-3 -5 -11 -10 -16 -10 -6 0 -7 5 -4
10 3 6 11 10 16 10 6 0 7 -4 4 -10z m65 -15 c0 -9 -6 -12 -15 -9 -8 4 -12 10
-9 15 8 14 24 10 24 -6z m35 -63 c-3 -3 -11 0 -18 7 -9 10 -8 11 6 5 10 -3 15
-9 12 -12z m405 8 c0 -5 -5 -10 -11 -10 -5 0 -7 5 -4 10 3 6 8 10 11 10 2 0 4
-4 4 -10z m-493 -30 c1 -23 1 -23 -4 -2 -4 19 -7 21 -19 11 -11 -9 -14 -8 -14
6 0 27 35 13 37 -15z m33 -11 c0 -6 -4 -7 -10 -4 -5 3 -10 11 -10 16 0 6 5 7
10 4 6 -3 10 -11 10 -16z m5547 -36 c15 -10 35 -25 43 -33 9 -8 63 -51 119
-95 57 -44 109 -86 117 -92 7 -7 17 -13 23 -13 5 0 14 -6 18 -13 4 -7 32 -28
61 -46 58 -35 102 -71 86 -71 -6 0 -20 9 -32 20 -12 11 -24 20 -27 20 -6 0
-86 53 -110 72 -5 5 -23 20 -40 33 -16 14 -34 25 -38 25 -4 0 -23 16 -42 35
-20 19 -39 35 -43 36 -13 3 -77 46 -89 60 -6 8 -39 32 -72 54 -33 22 -57 43
-54 48 3 4 16 1 29 -7 13 -9 36 -24 51 -33z m-5427 33 c0 -2 -7 -7 -16 -10 -8
-3 -12 -2 -9 4 6 10 25 14 25 6z m-130 -32 c0 -8 -4 -12 -10 -9 -5 3 -10 10
-10 16 0 5 5 9 10 9 6 0 10 -7 10 -16z m560 -22 c0 -5 -3 -12 -7 -16 -5 -4 -8
-11 -9 -14 -2 -18 -19 -49 -35 -65 -10 -9 -16 -24 -13 -32 4 -8 -1 -17 -9 -21
-9 -3 -13 -12 -10 -19 2 -8 -6 -29 -19 -47 -12 -18 -31 -48 -41 -65 -9 -18
-25 -41 -35 -52 -9 -10 -25 -28 -34 -39 -10 -12 -27 -22 -38 -22 -11 0 -20 -4
-20 -10 0 -5 -9 -14 -20 -20 -18 -10 -19 -9 -10 16 11 28 46 82 65 99 10 9 34
42 60 84 6 9 43 60 83 114 39 54 72 102 72 107 0 6 5 10 10 10 6 0 10 -4 10
-8z m3587 -64 c-3 -7 -5 -2 -5 12 0 14 2 19 5 13 2 -7 2 -19 0 -25z m-7026
-11 c-10 -9 -11 -8 -5 6 3 10 9 15 12 12 3 -3 0 -11 -7 -18z m3182 -62 c-18
-25 -33 -32 -33 -16 0 7 37 39 48 40 2 1 -5 -10 -15 -24z m6619 -36 c48 -25
96 -73 119 -121 9 -18 22 -46 30 -62 20 -41 17 -251 -4 -406 -32 -221 -92
-486 -147 -644 -11 -33 -20 -68 -20 -78 0 -11 -9 -36 -19 -56 -11 -20 -43 -98
-72 -172 -28 -74 -64 -161 -80 -194 -15 -32 -25 -65 -22 -72 3 -8 1 -14 -4
-14 -5 0 -20 -24 -33 -52 -35 -80 -71 -151 -86 -169 -8 -8 -14 -20 -14 -26 0
-6 -4 -13 -9 -15 -4 -1 -37 -37 -72 -78 -35 -41 -72 -82 -81 -92 -22 -22 -21
-12 -3 -135 16 -105 46 -190 71 -200 8 -3 24 5 35 18 11 13 48 53 82 90 34 36
89 99 122 140 33 40 75 90 92 109 18 19 33 38 33 43 0 4 9 7 20 7 11 0 20 -7
20 -15 0 -8 11 -17 25 -21 14 -4 23 -9 20 -13 -4 -3 -9 -5 -12 -3 -3 2 -27
-33 -54 -78 -26 -45 -66 -100 -88 -123 -23 -23 -41 -46 -41 -50 0 -5 -24 -33
-53 -62 -30 -29 -57 -59 -60 -68 -3 -8 -16 -17 -29 -20 -13 -2 -3 -5 22 -6 87
-2 212 95 411 319 83 95 126 146 171 205 12 17 25 32 28 35 3 3 10 14 16 25 6
11 21 21 33 23 21 3 48 39 37 49 -3 4 -14 -1 -24 -10 -28 -26 -36 -20 -10 7
17 17 27 21 36 13 7 -5 14 -8 15 -6 25 34 36 62 31 71 -4 6 -3 8 3 5 5 -3 17
7 26 22 9 16 37 53 61 82 35 42 41 55 31 65 -12 12 -12 125 0 145 4 5 1 9 -6
9 -18 0 -145 -128 -211 -212 -33 -43 -66 -78 -73 -78 -7 0 -23 20 -35 44 l-24
44 62 86 c34 48 62 91 62 96 0 6 11 16 25 22 14 6 24 17 21 24 -3 8 0 11 10 7
9 -3 14 1 14 13 0 16 2 16 10 4 9 -15 8 -17 25 36 3 9 14 18 25 21 11 3 20 11
20 18 0 7 7 15 15 19 8 3 15 11 15 19 0 7 16 28 35 47 19 19 35 39 35 46 0 6
26 38 57 70 31 33 58 65 59 73 2 8 8 17 14 21 6 4 8 14 5 22 -4 9 -1 19 4 23
6 3 9 10 6 15 -10 17 14 47 40 52 24 5 25 3 21 -31 -3 -20 -5 -51 -5 -68 -1
-21 -6 -33 -15 -33 -19 0 -27 -38 -10 -48 11 -6 7 -19 -16 -66 -17 -32 -30
-66 -30 -75 0 -14 -2 -14 -10 -1 -10 16 -12 12 -23 -37 -4 -19 -2 -21 11 -14
14 7 17 3 18 -25 0 -18 -3 -31 -8 -28 -4 3 -8 -4 -8 -15 0 -12 4 -21 9 -21 11
0 70 100 95 160 76 187 198 405 278 496 72 82 154 86 207 9 33 -49 36 -105 11
-220 -52 -237 -73 -525 -39 -525 12 0 49 33 49 44 0 5 10 18 23 30 12 12 33
43 46 68 21 39 23 49 12 62 -19 23 -16 121 4 152 l17 26 24 -23 c13 -12 21
-26 18 -30 -3 -5 -1 -16 4 -25 7 -13 11 -10 17 17 4 19 7 39 5 44 -7 30 -6 55
1 55 5 0 9 7 9 15 0 18 2 18 37 3 46 -21 59 -44 40 -75 -4 -6 -3 -14 3 -18 12
-8 14 -55 1 -55 -4 0 -11 -26 -15 -57 -7 -68 -31 -142 -51 -157 -18 -14 -24
-52 -7 -48 6 1 12 -1 13 -5 0 -5 1 -35 3 -68 2 -33 7 -69 11 -80 5 -16 5 -17
-4 -5 -9 12 -11 10 -11 -13 0 -24 2 -26 18 -16 33 22 108 118 136 175 15 31
32 82 36 113 27 189 140 473 203 511 69 43 156 15 187 -60 15 -37 25 -38 38
-2 5 15 13 36 18 46 5 14 4 17 -4 12 -18 -11 -14 10 4 25 8 7 48 79 88 160 41
81 81 157 90 170 l16 23 0 -28 c0 -21 -4 -27 -16 -22 -11 4 -14 1 -13 -12 2
-9 -3 -28 -10 -41 -8 -14 -9 -21 -2 -17 12 8 13 6 15 -36 1 -19 -4 -30 -16
-34 -11 -3 -20 -19 -24 -42 -3 -20 -12 -51 -19 -67 -14 -30 -31 -93 -42 -147
-3 -16 -9 -28 -14 -28 -5 0 -9 -11 -9 -25 0 -23 -16 -62 -30 -75 -3 -3 -7 -18
-8 -34 -1 -16 -8 -36 -14 -44 -19 -23 -25 -471 -7 -484 11 -7 11 -11 2 -14
-15 -7 -6 -735 10 -745 6 -4 5 -9 -1 -13 -5 -3 -8 -27 -6 -53 6 -87 16 -377
16 -463 -1 -66 2 -79 9 -60 18 44 47 182 64 300 22 163 22 158 35 233 11 63
11 69 -6 83 -18 14 -18 15 4 9 27 -8 32 19 5 29 -11 5 -13 10 -7 14 6 4 12 14
12 22 4 43 16 86 27 95 7 5 20 48 30 95 9 47 37 167 61 266 54 224 54 226 29
230 -80 15 -105 16 -105 4 0 -7 -6 -10 -14 -7 -8 3 -38 -3 -68 -14 -29 -10
-60 -19 -68 -19 -21 1 27 27 73 40 23 7 37 17 37 27 0 9 5 33 12 55 8 26 14
35 20 26 5 -8 8 -1 8 20 0 48 51 187 62 170 4 -7 5 -26 2 -43 -9 -43 -1 -30
36 55 17 41 29 85 27 97 -2 12 0 20 5 17 14 -9 34 19 52 72 9 28 25 60 36 72
11 12 20 30 20 40 0 11 7 25 15 32 8 7 15 17 15 22 0 5 10 24 23 41 12 18 23
37 23 42 0 6 10 32 22 59 19 41 25 46 37 36 13 -11 15 -8 16 16 0 25 2 26 8 9
8 -19 8 -19 16 5 4 14 16 43 26 65 61 137 117 284 109 287 -5 2 -2 28 6 58 8
30 13 66 10 80 -14 80 112 114 172 45 15 -18 22 -39 22 -69 0 -53 -13 -89 -79
-228 -28 -59 -51 -110 -51 -114 0 -3 -6 -20 -14 -37 -29 -64 -155 -411 -180
-497 -37 -124 -79 -280 -87 -325 -5 -27 -14 -59 -19 -70 -5 -11 -23 -78 -40
-150 -17 -71 -40 -166 -51 -209 -10 -44 -17 -82 -14 -84 3 -3 1 -10 -4 -16 -5
-6 -17 -47 -25 -91 -9 -44 -21 -94 -26 -111 -6 -16 -12 -49 -14 -72 -3 -23
-12 -67 -21 -98 -26 -90 -65 -369 -71 -514 -7 -152 -14 -184 -75 -325 -51
-119 -70 -209 -99 -455 -21 -180 -23 -186 -51 -211 -26 -22 -35 -25 -72 -19
-60 10 -76 19 -91 49 -14 26 -17 233 -18 1031 0 162 -1 331 -2 375 -2 44 -5
201 -9 348 -3 148 -8 271 -11 274 -3 4 -7 -23 -7 -58 -2 -96 -6 -127 -24 -214
-8 -44 -14 -88 -12 -97 3 -9 -1 -19 -8 -22 -8 -3 -11 -13 -8 -25 4 -16 14 -21
37 -21 27 -1 28 -2 13 -11 -10 -6 -30 -8 -44 -4 -19 4 -32 0 -49 -16 -13 -12
-24 -27 -24 -32 0 -5 -7 -15 -16 -22 -25 -18 -26 -66 -2 -92 12 -12 25 -20 31
-16 6 4 7 1 2 -6 -4 -7 -15 -11 -25 -8 -16 4 -17 1 -8 -24 7 -20 6 -47 -5 -96
-20 -90 -31 -164 -28 -186 1 -10 -2 -24 -7 -30 -6 -7 -9 -42 -7 -79 1 -37 -1
-65 -5 -63 -4 3 -4 -12 1 -33 12 -54 11 -135 -2 -127 -6 4 -1 -11 10 -34 12
-22 20 -44 19 -48 -1 -5 6 -34 16 -66 10 -31 16 -73 15 -92 -2 -18 0 -37 3
-40 4 -4 4 -13 1 -21 -3 -8 1 -14 8 -14 11 0 11 -2 2 -8 -7 -4 -14 -25 -15
-45 -2 -20 -7 -37 -13 -37 -5 0 -4 -4 4 -9 12 -8 13 -14 3 -36 -7 -15 -10 -31
-7 -36 4 -5 2 -9 -4 -9 -5 0 -12 -13 -16 -29 -3 -16 -13 -32 -21 -35 -8 -3
-14 -11 -14 -18 0 -9 3 -9 10 2 5 8 12 11 16 7 4 -3 1 -13 -6 -22 -7 -8 -10
-15 -7 -15 3 0 -10 -16 -29 -36 -19 -20 -34 -41 -34 -45 0 -5 -9 -9 -20 -9
-14 0 -18 5 -13 17 4 11 8 13 11 5 2 -7 8 -9 14 -6 5 3 2 15 -9 27 -10 11 -13
18 -7 14 10 -6 47 88 47 121 0 9 5 20 11 24 8 5 7 8 -2 8 -8 0 -11 11 -7 38
10 70 11 122 2 122 -4 0 -7 10 -6 23 2 12 0 28 -5 36 -5 8 -4 16 4 21 7 5 8
10 2 14 -5 3 -13 22 -16 41 -4 19 -12 35 -18 35 -6 0 -8 11 -6 25 3 13 1 22
-3 19 -5 -3 -9 2 -9 10 0 9 -9 31 -19 50 -11 19 -17 37 -13 40 10 10 9 86 -1
86 -4 0 -6 9 -2 19 9 29 16 62 21 106 3 22 8 47 11 55 10 26 10 51 0 57 -5 3
-5 8 2 12 6 4 13 41 15 82 2 41 6 81 9 89 4 8 8 41 10 72 2 31 11 68 20 82 11
16 13 27 6 31 -5 4 -9 14 -7 23 1 10 -1 23 -5 29 -4 7 -3 22 3 33 12 22 23 82
21 117 0 12 4 25 9 28 6 4 8 23 5 43 -4 28 -3 32 4 17 8 -17 10 -15 12 15 3
49 4 54 11 66 4 6 12 31 17 56 6 25 16 58 22 74 7 16 13 34 13 39 5 50 79 124
112 111 8 -3 14 1 14 9 0 22 -29 18 -77 -9 -23 -13 -40 -19 -37 -12 5 13 76
46 99 46 8 0 15 7 15 15 0 18 2 18 -48 1 -29 -10 -44 -12 -48 -4 -4 5 -3 13 2
17 5 3 9 15 10 26 1 26 12 70 31 123 8 23 16 48 17 55 1 6 4 17 8 22 3 6 6 51
7 100 1 115 -12 95 -34 -50 -19 -134 -46 -192 -125 -277 -33 -35 -60 -66 -60
-70 0 -8 -115 -90 -157 -112 -18 -9 -32 -21 -30 -27 3 -16 -67 -51 -105 -53
-22 -1 -33 4 -34 14 0 8 -2 20 -2 27 -1 6 -17 15 -34 18 -38 9 -125 50 -150
73 -12 10 -18 11 -18 3 0 -15 -99 -109 -122 -117 -10 -3 -18 -10 -18 -15 0 -5
-5 -9 -10 -9 -6 0 -28 -8 -49 -18 -21 -10 -50 -18 -64 -18 -25 2 -26 1 -9 -19
9 -11 24 -25 32 -32 8 -7 11 -13 7 -13 -4 0 -29 20 -55 44 -58 54 -91 68 -143
60 -37 -6 -43 -4 -70 25 -16 18 -29 36 -29 41 0 32 -97 -62 -131 -127 -7 -16
-48 -68 -89 -118 -243 -291 -384 -439 -484 -507 -122 -84 -256 -108 -376 -68
-59 20 -60 20 -79 1 -11 -11 -39 -25 -63 -32 -24 -7 -47 -16 -53 -21 -22 -19
-186 3 -216 29 -14 12 -20 9 -45 -20 -37 -43 -49 -59 -103 -132 -25 -33 -47
-62 -50 -65 -3 -3 -38 -43 -78 -90 -88 -105 -243 -257 -303 -297 -149 -99
-317 -82 -413 43 -57 75 -71 134 -62 273 4 64 8 126 9 139 0 12 5 22 10 22 4
0 6 10 2 23 -4 15 1 27 15 37 25 19 38 75 39 155 0 77 -16 109 -55 113 -25 2
-35 -5 -63 -43 -25 -33 -32 -50 -27 -66 4 -13 7 -53 6 -91 -1 -48 2 -68 11
-69 7 -1 -12 -8 -42 -16 -107 -28 -99 -28 -98 6 1 17 4 31 8 31 4 0 7 7 7 15
0 8 -3 15 -6 15 -5 0 -119 -186 -162 -265 -63 -116 -108 -206 -119 -240 -14
-45 -50 -133 -87 -215 -14 -30 -31 -68 -38 -85 -19 -43 -119 -283 -135 -325
-28 -72 -58 -109 -94 -116 -48 -8 -104 21 -128 66 -17 33 -19 34 -24 13 -8
-28 -27 -29 -64 -3 l-29 20 24 26 c49 55 54 64 63 106 10 40 10 38 9 -34 -1
-42 2 -80 6 -84 4 -4 7 22 7 57 1 35 5 84 10 109 5 25 12 122 16 215 6 165 6
171 -16 198 -24 30 -67 37 -76 12 -4 -8 -1 -22 6 -31 17 -19 20 -104 9 -219
-5 -49 -11 -122 -13 -161 -5 -84 -24 -127 -66 -146 -16 -7 -30 -19 -30 -25 0
-20 -18 -15 -22 5 -2 9 0 53 4 97 22 238 28 364 17 370 -11 8 -34 -26 -119
-175 -45 -80 -121 -200 -169 -268 -47 -67 -91 -130 -96 -140 -6 -9 -32 -39
-58 -66 -26 -28 -47 -53 -47 -57 0 -8 -111 -131 -170 -187 -168 -163 -269
-210 -376 -176 -30 9 -56 15 -58 13 -22 -25 -236 -374 -236 -384 0 -14 -104
-131 -154 -174 -28 -24 -69 -52 -91 -62 -22 -10 -34 -19 -28 -19 29 0 237 89
253 109 13 16 82 62 86 58 9 -9 -105 -88 -185 -128 -161 -80 -328 -87 -476
-18 -22 10 -47 24 -56 31 -23 19 -90 109 -102 138 -8 20 -11 22 -14 8 -3 -10
-8 -18 -13 -18 -9 0 -8 33 2 40 4 3 2 37 -3 75 -18 121 6 260 73 418 16 40 32
81 35 92 4 11 9 22 13 25 4 3 22 34 40 70 68 135 192 346 216 368 28 25 75 29
114 9 22 -11 33 -9 100 25 132 65 221 79 365 55 86 -13 220 -61 260 -91 18
-14 36 -26 40 -26 3 0 17 -12 30 -27 16 -20 20 -30 12 -36 -9 -6 -9 -10 1 -14
18 -7 15 -23 -5 -23 -15 0 -16 -2 -3 -10 9 -6 10 -10 3 -10 -7 0 -16 6 -20 13
-11 19 -108 89 -166 121 -72 39 -181 66 -269 67 -82 0 -158 -15 -158 -32 0 -6
-7 -8 -16 -5 -9 3 -42 -6 -75 -21 -53 -24 -58 -29 -52 -52 3 -14 9 -30 14 -35
4 -5 6 0 3 10 -3 13 9 29 41 54 55 43 77 51 50 19 l-20 -23 25 17 c57 40 106
57 166 57 87 0 149 -24 205 -81 70 -71 90 -121 98 -244 3 -57 3 -101 -1 -98
-5 2 -8 -6 -7 -19 0 -13 3 -17 6 -10 8 20 20 14 33 -18 13 -31 19 -31 63 4 15
11 16 18 8 34 -6 12 -8 28 -5 36 8 21 52 32 67 17 34 -34 50 10 21 55 -24 35
-7 44 21 12 13 -16 26 -28 29 -28 5 0 61 57 101 103 8 9 15 23 16 30 0 10 2
10 6 0 5 -14 33 -18 33 -5 0 4 14 22 30 41 17 18 30 41 30 50 -1 17 1 19 -46
-46 -9 -13 -21 -23 -27 -23 -5 0 -5 6 2 13 6 8 8 17 4 21 -4 3 3 14 16 22 13
9 20 22 17 31 -5 11 -1 13 15 8 14 -5 25 -2 30 6 15 24 10 29 -33 29 -24 0
-50 5 -58 10 -13 8 -12 10 4 10 11 0 17 3 13 6 -3 4 5 21 18 39 14 17 25 35
25 39 0 4 11 22 25 40 14 18 25 38 25 44 0 7 4 12 9 12 5 0 11 8 14 18 3 9 20
42 38 72 17 30 51 92 75 137 24 45 53 94 66 109 80 93 106 111 171 119 26 3
80 23 119 43 62 32 79 37 139 36 58 0 75 -4 121 -33 29 -18 50 -30 46 -26 -4
4 2 16 12 27 24 26 55 89 52 106 -2 6 3 12 10 12 13 0 18 7 48 66 8 16 38 69
67 117 29 48 53 90 53 93 0 3 20 31 45 63 25 31 45 60 45 63 0 14 91 98 105
98 9 0 13 5 10 10 -3 6 1 10 10 10 10 0 15 6 12 13 -3 7 5 12 22 12 14 1 37 4
50 9 17 6 22 5 16 -4 -6 -9 -3 -9 14 -1 18 10 20 9 14 -6 -4 -10 19 5 50 34
68 61 151 103 204 103 97 -1 187 -64 231 -159 23 -49 24 -62 19 -150 -3 -53
-13 -116 -21 -140 -20 -55 -20 -58 4 -66 24 -8 27 -25 4 -25 -8 0 -22 -7 -30
-15 -14 -13 -13 -15 8 -15 22 0 22 -1 -6 -27 -18 -17 -25 -28 -17 -31 9 -3 8
-9 -5 -23 -35 -39 -12 -216 31 -233 29 -11 70 -6 95 11 95 64 229 187 310 284
19 23 45 53 58 68 12 14 41 55 64 91 23 36 47 74 55 85 85 129 103 156 103
161 0 2 -9 0 -20 -6 -11 -6 -20 -7 -20 -2 0 5 -6 9 -14 9 -8 0 -12 -6 -9 -14
3 -9 -3 -13 -21 -13 -14 0 -26 -4 -26 -10 0 -5 5 -10 10 -10 18 0 11 -16 -20
-48 -16 -18 -30 -29 -30 -26 0 4 -7 1 -15 -6 -9 -7 -14 -19 -11 -27 3 -8 -2
-13 -12 -13 -9 0 -28 -14 -42 -32 -14 -17 -36 -43 -51 -57 -14 -14 -45 -53
-69 -86 -56 -76 -60 -81 -90 -110 -14 -14 -21 -25 -17 -25 4 0 -31 -38 -77
-85 -46 -47 -90 -85 -97 -85 -7 0 -9 -3 -6 -7 9 -8 -12 -33 -27 -33 -7 0 -17
19 -24 43 -13 48 -21 34 103 177 44 51 118 143 164 204 46 61 89 118 97 126
48 53 73 82 104 120 19 23 44 52 56 64 11 11 30 37 42 56 11 20 32 49 46 65
14 17 26 37 26 46 0 8 5 20 11 26 9 9 7 11 -9 7 -16 -5 -21 0 -26 23 -8 35
-16 400 -9 407 3 2 6 46 8 97 2 56 7 95 14 97 6 2 9 7 6 11 -4 7 0 49 22 231
3 25 6 54 8 65 2 11 4 23 4 28 2 15 18 6 31 -18 7 -14 21 -25 31 -25 26 0 29
-22 12 -93 -16 -65 -12 -137 7 -137 6 0 10 -7 10 -16 0 -8 4 -13 9 -10 4 3 17
-1 27 -10 19 -15 19 -15 -1 -10 -11 3 -25 2 -31 -2 -8 -5 -14 -84 -18 -237
l-7 -230 20 25 c12 14 27 32 34 40 7 8 31 51 53 95 21 44 42 82 47 83 4 2 7 9
7 16 0 7 11 33 24 58 18 34 25 67 30 144 4 54 16 180 27 278 16 138 18 181 9
186 -7 4 -9 13 -6 19 4 6 3 11 -2 11 -14 0 -22 39 -10 46 6 4 14 1 18 -7 6 -9
10 -6 15 13 4 15 4 32 0 39 -4 6 -2 15 5 19 8 5 33 108 60 242 65 320 141 603
189 703 57 117 137 190 236 216 47 13 141 1 187 -22z m-2864 -74 c-3 -3 -9 2
-12 12 -6 14 -5 15 5 6 7 -7 10 -15 7 -18z m-5071 -47 c-3 -8 -6 -5 -6 6 -1
11 2 17 5 13 3 -3 4 -12 1 -19z m-1907 -25 c-11 -17 -11 -17 -6 0 3 10 6 24 7
30 0 9 2 9 5 0 3 -7 0 -20 -6 -30z m7003 -10 c-9 -22 -23 -14 -23 12 0 21 2
24 14 13 7 -7 11 -19 9 -25z m2229 5 c-7 -7 -12 -8 -12 -2 0 14 12 26 19 19 2
-3 -1 -11 -7 -17z m-252 -22 c0 -3 -4 -8 -10 -11 -5 -3 -10 -1 -10 4 0 6 5 11
10 11 6 0 10 -2 10 -4z m97 -72 c-3 -3 -12 -4 -19 -1 -8 3 -5 6 6 6 11 1 17
-2 13 -5z m-9064 -34 c-4 -14 0 -20 11 -20 10 0 16 -9 16 -25 0 -14 -5 -25
-11 -25 -6 0 -8 -7 -5 -16 3 -8 2 -12 -4 -9 -6 3 -10 1 -10 -6 0 -7 -3 -10 -6
-7 -3 4 2 20 10 37 20 37 21 51 2 26 -12 -16 -13 -14 -11 21 2 42 3 44 9 44 2
0 2 -9 -1 -20z m6944 -32 c-3 -8 -6 -5 -6 6 -1 11 2 17 5 13 3 -3 4 -12 1 -19z
m2321 -24 c1 -15 -4 -24 -12 -24 -19 0 -37 25 -31 43 9 23 40 9 43 -19z m32
26 c0 -5 -4 -10 -10 -10 -5 0 -10 5 -10 10 0 6 5 10 10 10 6 0 10 -4 10 -10z
m-8193 -26 c3 -8 11 -14 19 -14 21 0 17 -14 -11 -38 -14 -12 -25 -26 -25 -32
0 -5 -6 -10 -14 -10 -18 0 -33 43 -17 48 6 2 11 15 11 28 0 14 -4 22 -10 19
-5 -3 -10 0 -10 8 0 18 49 10 57 -9z m1865 -6 c-7 -7 -12 -8 -12 -2 0 14 12
26 19 19 2 -3 -1 -11 -7 -17z m6351 5 c-7 -2 -19 -2 -25 0 -7 3 -2 5 12 5 14
0 19 -2 13 -5z m-133 -55 c0 -15 -13 -38 -22 -38 -5 0 -6 5 -3 10 3 6 0 10 -8
10 -8 0 -20 7 -27 15 -10 12 -10 15 4 15 9 0 16 5 16 10 0 6 8 5 20 -2 11 -7
20 -16 20 -20z m-8650 -43 c-6 -8 -8 -20 -4 -27 5 -10 4 -10 -6 -1 -10 10 -11
15 -1 27 6 8 9 27 6 43 l-5 28 11 -28 c8 -21 8 -31 -1 -42z m-520 31 c0 -2 -7
-9 -15 -16 -13 -11 -14 -10 -9 4 5 14 24 23 24 12z m9093 -78 c17 -21 23 -59
10 -72 -9 -8 -26 -69 -54 -191 -26 -115 -24 -107 -32 -131 -11 -33 -55 -260
-60 -315 -3 -27 -11 -37 -39 -51 -20 -9 -46 -20 -60 -23 l-24 -6 12 96 c7 53
16 104 19 113 4 9 13 46 21 82 25 125 52 236 72 292 11 31 17 59 14 62 -3 3
-1 6 4 6 5 0 11 12 12 28 1 15 7 29 12 30 6 2 10 12 10 22 0 10 5 31 12 47 6
15 10 32 9 36 -3 15 44 -4 62 -25z m-8606 16 c-3 -3 -12 -4 -19 -1 -8 3 -5 6
6 6 11 1 17 -2 13 -5z m2344 -37 c-10 -9 -11 -8 -5 6 3 10 9 15 12 12 3 -3 0
-11 -7 -18z m-2261 -22 c-11 -20 -20 -42 -20 -49 0 -8 -3 -16 -7 -18 -5 -1
-23 -41 -41 -88 -41 -103 -52 -130 -64 -153 -5 -10 -6 -22 -3 -28 4 -6 -3 -8
-17 -6 -12 2 -18 2 -11 0 6 -2 14 -11 17 -19 8 -22 -24 -31 -39 -11 -7 10 -16
17 -21 17 -5 0 -9 31 -9 70 0 38 4 70 9 70 4 0 6 6 3 14 -5 13 50 90 115 159
19 20 33 37 29 37 -3 0 8 9 24 20 46 31 58 26 35 -15z m3950 -26 c0 -6 -4 -7
-10 -4 -5 3 -10 11 -10 16 0 6 5 7 10 4 6 -3 10 -11 10 -16z m-1109 -10 c20
-14 29 -29 29 -49 0 -16 -3 -30 -8 -32 -4 -1 -22 -23 -41 -46 -27 -35 -31 -46
-20 -52 7 -5 10 -12 6 -17 -5 -4 -12 -1 -17 7 -5 8 -11 12 -13 10 -6 -9 -92
-123 -130 -175 -21 -27 -41 -54 -45 -60 -60 -80 -137 -166 -140 -156 -2 6 8
23 22 36 14 13 26 29 26 35 0 7 9 23 20 37 11 14 20 34 20 43 0 10 7 23 15 30
9 7 13 15 10 18 -3 3 4 11 14 18 10 7 21 27 24 44 4 19 15 34 29 40 13 5 18 9
11 9 -15 1 -5 38 13 45 8 3 14 12 14 20 0 8 8 21 18 28 9 7 26 31 37 53 11 22
26 46 33 53 7 8 10 18 7 23 -4 5 2 6 11 2 14 -5 16 -2 12 15 -4 12 -2 22 4 22
5 0 6 5 3 10 -10 16 5 12 36 -11z m1149 11 c0 -5 8 -10 18 -11 11 0 12 -2 4
-6 -10 -4 -10 -8 -1 -19 7 -8 9 -17 6 -20 -10 -10 -27 6 -27 25 0 9 -5 22 -12
29 -9 9 -9 12 0 12 7 0 12 -4 12 -10z m-1970 -7 c-1 -12 -61 -75 -66 -70 -5 5
54 77 62 77 2 0 4 -3 4 -7z m4486 -20 c-10 -10 -19 5 -10 18 6 11 8 11 12 0 2
-7 1 -15 -2 -18z m359 10 c0 -6 3 -15 8 -19 4 -4 7 -12 7 -18 0 -12 -39 34
-40 47 0 5 6 7 13 5 6 -3 12 -10 12 -15z m-7121 0 c4 -5 12 -8 18 -8 6 0 17
-10 26 -22 9 -15 10 -23 3 -23 -6 0 -11 -8 -11 -17 0 -12 -6 -8 -16 12 -8 16
-23 38 -31 47 -15 17 -5 26 11 11z m-6 -121 l-1 -47 -6 45 c-4 28 -11 44 -18
43 -7 -2 -13 1 -13 6 0 5 6 12 13 14 7 3 5 6 -5 6 -20 1 -21 2 -12 26 12 31
44 -40 42 -93z m11867 68 c3 -5 2 -10 -4 -10 -5 0 -13 5 -16 10 -3 6 -2 10 4
10 5 0 13 -4 16 -10z m-7435 -10 c0 -5 -2 -10 -4 -10 -3 0 -8 5 -11 10 -3 6
-1 10 4 10 6 0 11 -4 11 -10z m2720 0 c0 -5 -4 -10 -10 -10 -5 0 -10 5 -10 10
0 6 5 10 10 10 6 0 10 -4 10 -10z m-6077 -25 c-7 -21 -13 -19 -13 6 0 11 4 18
10 14 5 -3 7 -12 3 -20z m1119 -17 c-8 -8 -9 -4 -5 13 4 13 8 18 11 10 2 -7
-1 -18 -6 -23z m9639 -16 c-6 -2 -9 -8 -5 -13 3 -5 0 -9 -5 -9 -6 0 -11 2 -11
4 0 2 -3 12 -6 20 -5 12 -2 15 10 10 12 -4 16 0 17 17 l2 24 4 -25 c3 -13 0
-26 -6 -28z m-11892 7 c-13 -26 -20 -21 -12 9 3 12 9 19 14 16 5 -3 4 -14 -2
-25z m7201 15 c0 -8 -4 -12 -10 -9 -5 3 -10 10 -10 16 0 5 5 9 10 9 6 0 10 -7
10 -16z m5110 -4 c0 -22 -16 -26 -40 -10 -13 8 -12 10 5 11 14 1 10 4 -10 9
-30 8 -30 8 8 9 31 1 37 -2 37 -19z m-7885 -20 c3 -5 1 -10 -4 -10 -6 0 -11 5
-11 10 0 6 2 10 4 10 3 0 8 -4 11 -10z m2748 -18 c-12 -12 -21 -14 -25 -8 -13
19 -9 26 17 26 24 0 24 -1 8 -18z m-7153 -6 c0 -2 -7 -6 -15 -10 -8 -3 -15 -1
-15 4 0 6 7 10 15 10 8 0 15 -2 15 -4z m4380 -16 c0 -5 -13 -10 -30 -10 -16 0
-30 5 -30 10 0 6 14 10 30 10 17 0 30 -4 30 -10z m45 -10 c0 -7 -6 -15 -12
-17 -8 -3 -13 4 -13 17 0 13 5 20 13 18 6 -3 12 -11 12 -18z m-5015 -9 c-5
-11 -15 -23 -21 -27 -6 -3 -3 5 6 20 20 30 30 35 15 7z m620 -56 c-8 -40 -8
-40 -9 15 0 35 3 50 8 40 5 -8 5 -33 1 -55z m7010 40 c0 -8 -4 -15 -10 -15 -5
0 -7 7 -4 15 4 8 8 15 10 15 2 0 4 -7 4 -15z m-2484 -17 c-27 -6 -43 -5 -50 3
-8 9 -7 10 5 6 9 -3 22 -2 29 3 6 4 22 5 34 2 17 -5 13 -7 -18 -14z m81 6 c-3
-3 -12 -4 -19 -1 -8 3 -5 6 6 6 11 1 17 -2 13 -5z m-4637 -30 c0 -16 -9 -18
-29 -5 -7 5 -11 14 -7 19 9 15 36 4 36 -14z m2197 -13 c27 -40 30 -87 7 -119
-12 -17 -14 -37 -10 -81 3 -32 3 -61 -1 -65 -8 -7 -5 -90 3 -118 8 -26 21 -22
26 7 3 14 1 25 -3 25 -5 0 -9 7 -9 16 0 9 6 14 13 11 6 -2 12 -13 12 -25 0
-11 4 -24 8 -28 12 -13 8 -21 -15 -27 -20 -6 -21 -10 -15 -87 4 -45 10 -86 14
-93 4 -6 8 -18 8 -27 3 -27 16 -84 26 -110 14 -38 -3 -82 -41 -107 -41 -28
-70 -29 -103 -3 -31 24 -49 102 -68 283 -10 108 -13 118 -30 114 -11 -3 -19
-1 -19 4 0 5 9 9 21 9 19 0 20 4 14 58 -4 31 -11 73 -16 92 -16 62 -11 182 9
220 19 36 104 92 132 87 8 -1 25 -17 37 -36z m2273 24 c0 -8 -7 -11 -20 -8
-11 3 -20 8 -20 12 0 4 9 7 20 8 11 1 20 -4 20 -12z m-5117 -20 c-3 -9 -8 -14
-10 -11 -3 3 -2 9 2 15 9 16 15 13 8 -4z m341 -47 c4 -28 3 -48 -2 -48 -11 0
-24 79 -15 93 8 12 10 7 17 -45z m4797 29 c-13 -13 -26 -3 -16 12 3 6 11 8 17
5 6 -4 6 -10 -1 -17z m105 -8 c9 -15 -17 -30 -41 -23 -32 10 -37 20 -20 38 17
16 45 9 61 -15z m164 21 c0 -5 -5 -10 -11 -10 -5 0 -7 5 -4 10 3 6 8 10 11 10
2 0 4 -4 4 -10z m-4770 -30 c0 -15 -5 -12 -26 11 -19 22 -19 22 4 10 12 -6 22
-16 22 -21z m4700 -26 c0 -15 -27 -18 -54 -8 -27 10 -18 27 12 20 15 -3 21 -3
14 0 -6 3 -9 10 -6 15 8 13 34 -9 34 -27z m-4652 1 c-3 -3 -9 2 -12 12 -6 14
-5 15 5 6 7 -7 10 -15 7 -18z m4759 19 c-3 -3 -12 -4 -19 -1 -8 3 -5 6 6 6 11
1 17 -2 13 -5z m-5137 -28 c0 -2 -16 -13 -35 -25 -23 -14 -37 -17 -41 -9 -4 7
-3 8 4 4 7 -4 12 -3 12 2 0 5 10 14 23 20 24 11 37 14 37 8z m4948 -26 c-1
-33 -12 -37 -53 -18 -32 15 -33 32 0 24 18 -5 25 -2 25 9 0 8 6 15 14 15 10 0
14 -10 14 -30z m127 9 c-8 -12 -35 -12 -35 0 0 11 22 20 33 14 4 -2 5 -9 2
-14z m-4711 -5 c3 -8 2 -12 -4 -9 -6 3 -10 10 -10 16 0 14 7 11 14 -7z m120
-51 c26 -35 14 -28 -29 19 -24 24 -30 33 -14 23 14 -11 33 -29 43 -42z m4726
47 c0 -5 -4 -10 -10 -10 -5 0 -10 5 -10 10 0 6 5 10 10 10 6 0 10 -4 10 -10z
m-5300 -14 c0 -3 -4 -8 -10 -11 -5 -3 -10 -1 -10 4 0 6 5 11 10 11 6 0 10 -2
10 -4z m9227 -10 c-3 -8 -3 -17 1 -21 13 -12 10 -64 -4 -69 -8 -3 -11 -11 -8
-19 6 -17 -21 -41 -37 -31 -14 8 -7 101 11 133 12 23 45 30 37 7z m-9101 -23
c-10 -10 -19 5 -10 18 6 11 8 11 12 0 2 -7 1 -15 -2 -18z m5099 0 c-5 -10 -7
-24 -6 -30 1 -7 -3 -13 -9 -13 -14 0 -13 43 2 58 15 15 22 7 13 -15z m160 17
c-3 -5 -12 -10 -18 -10 -7 0 -6 4 3 10 19 12 23 12 15 0z m115 -11 c0 -14 -17
-10 -23 5 -4 10 -1 13 9 9 7 -3 14 -9 14 -14z m-5555 1 c-3 -5 -12 -10 -18
-10 -7 0 -6 4 3 10 19 12 23 12 15 0z m5340 1 c-3 -5 -1 -12 5 -16 15 -9 12
-25 -5 -25 -8 0 -15 9 -15 19 0 11 -6 22 -12 24 -7 3 -3 6 10 6 13 1 21 -3 17
-8z m-5375 -21 c0 -5 -5 -10 -11 -10 -5 0 -7 5 -4 10 3 6 8 10 11 10 2 0 4 -4
4 -10z m5410 -30 c-6 -11 -15 -20 -20 -20 -6 0 -5 9 2 20 7 11 16 20 21 20 4
0 3 -9 -3 -20z m60 10 c0 -5 -4 -10 -10 -10 -5 0 -10 5 -10 10 0 6 5 10 10 10
6 0 10 -4 10 -10z m210 -10 c0 -5 -4 -10 -10 -10 -5 0 -10 5 -10 10 0 6 5 10
10 10 6 0 10 -4 10 -10z m-360 -25 c0 -8 -2 -15 -4 -15 -2 0 -6 7 -10 15 -3 8
-1 15 4 15 6 0 10 -7 10 -15z m103 0 c-3 -9 -8 -14 -10 -11 -3 3 -2 9 2 15 9
16 15 13 8 -4z m-5169 -44 c9 -16 12 -32 8 -36 -4 -3 -7 -10 -7 -14 0 -10 -67
-91 -127 -154 -27 -28 -48 -51 -48 -52 0 -4 -141 -145 -145 -145 -2 0 -19 -16
-38 -35 -19 -19 -43 -35 -54 -35 -10 0 -23 -10 -28 -22 -6 -13 -17 -23 -25
-23 -20 -1 -70 -45 -70 -62 0 -7 -8 -13 -17 -13 -10 0 -29 -3 -42 -7 -16 -4
-22 -2 -18 4 4 6 0 13 -8 16 -11 5 -12 12 -4 37 6 16 17 30 24 30 7 0 29 12
50 26 30 20 40 23 46 12 6 -9 9 -7 9 8 0 18 40 64 56 64 4 0 17 11 30 25 13
14 20 25 17 25 -3 0 6 11 21 25 15 14 31 25 37 25 5 0 9 7 9 15 0 8 9 19 21
25 21 12 59 46 59 54 0 9 171 176 180 176 6 0 10 6 10 14 0 13 25 46 35 46 3
0 11 -13 19 -29z m5306 -17 c0 -2 -7 -4 -15 -4 -8 0 -15 4 -15 10 0 5 7 7 15
4 8 -4 15 -8 15 -10z m5310 -4 c0 -5 -2 -10 -4 -10 -3 0 -8 5 -11 10 -3 6 -1
10 4 10 6 0 11 -4 11 -10z m-5310 -20 c0 -5 -2 -10 -4 -10 -3 0 -8 5 -11 10
-3 6 -1 10 4 10 6 0 11 -4 11 -10z m50 -2 c0 -7 -9 -24 -20 -38 -19 -24 -19
-24 -13 -2 3 12 9 22 14 22 5 0 9 7 9 15 0 8 2 15 5 15 3 0 5 -6 5 -12z m-94
-13 c3 -8 14 -17 25 -20 21 -7 27 -59 8 -70 -5 -4 -15 -19 -21 -33 -11 -25
-12 -25 -15 -6 -2 12 -15 27 -29 34 -26 15 -30 25 -13 36 8 4 7 9 -2 15 -10 6
-11 11 -3 17 6 4 13 15 17 25 8 21 26 22 33 2z m-1429 -125 c0 -36 -2 -53 -4
-37 -2 15 -9 27 -14 27 -5 0 -9 5 -9 11 0 5 5 7 10 4 6 -4 10 8 10 30 0 20 -4
34 -8 31 -5 -3 -6 9 -3 27 l5 32 7 -30 c4 -16 6 -59 6 -95z m-1566 47 c-8 -8
-11 -3 -11 19 1 25 2 27 11 11 8 -14 8 -22 0 -30z m298 16 c14 -27 9 -29 -13
-7 -9 8 -13 20 -10 25 7 12 7 11 23 -18z m119 -6 c2 -9 -1 -17 -7 -17 -6 0 -8
6 -5 14 3 8 -2 16 -13 20 -15 4 -15 5 2 3 11 -1 21 -10 23 -20z m-3483 -21
c-11 -7 -67 -32 -124 -55 -57 -23 -117 -49 -133 -57 -17 -9 -32 -13 -36 -10
-8 8 -10 7 128 65 69 29 134 56 145 61 31 13 42 11 20 -4z m4595 -21 c0 -28
-3 -33 -17 -28 -11 4 -12 8 -5 11 7 2 12 15 12 28 0 13 2 24 5 24 3 0 5 -16 5
-35z m-1133 -17 c-3 -8 -6 -5 -6 6 -1 11 2 17 5 13 3 -3 4 -12 1 -19z m-3641
3 c-7 -11 -126 -54 -133 -48 -2 3 20 14 49 25 29 10 60 22 68 25 22 8 22 8 16
-2z m3624 -11 c0 -22 -16 -27 -22 -8 -3 8 -9 8 -24 0 -10 -6 -13 -12 -6 -12 7
0 10 -5 6 -11 -4 -7 -10 -7 -16 -1 -15 15 13 52 39 52 16 0 23 -6 23 -20z
m-83 -12 c-3 -8 -6 -5 -6 6 -1 11 2 17 5 13 3 -3 4 -12 1 -19z m1176 15 c-7
-2 -19 -2 -25 0 -7 3 -2 5 12 5 14 0 19 -2 13 -5z m8460 -13 c-3 -12 -8 -19
-11 -16 -5 6 5 36 12 36 2 0 2 -9 -1 -20z m-4035 -16 c12 -4 22 -13 22 -20 0
-8 8 -14 19 -14 23 0 47 -25 31 -35 -17 -11 -11 -25 12 -25 17 0 19 -3 10 -12
-9 -9 -7 -14 6 -25 16 -12 16 -13 0 -7 -12 4 -18 1 -18 -9 0 -18 -42 -47 -70
-47 -11 0 -32 7 -45 16 -16 10 -25 12 -25 5 0 -25 -49 22 -65 61 -13 33 -14
43 -3 49 11 7 11 9 0 9 -18 0 3 21 43 43 33 18 49 20 83 11z m-9078 -24 c-15
-11 -26 -15 -29 -8 -4 12 17 28 39 28 10 0 7 -7 -10 -20z m1375 10 c3 -5 1
-10 -4 -10 -6 0 -11 5 -11 10 0 6 2 10 4 10 3 0 8 -4 11 -10z m-1425 -20 c0
-5 -7 -10 -16 -10 -8 0 -12 5 -9 10 3 6 10 10 16 10 5 0 9 -4 9 -10z m4787
-36 c2 -16 1 -16 -3 -1 -3 9 -9 15 -14 12 -5 -3 -11 -1 -14 4 -4 5 2 8 11 7
10 -2 19 -11 20 -22z m8362 -19 c0 -5 -4 -3 -9 5 -5 8 -9 22 -9 30 0 16 17
-16 18 -35z m-11672 -27 c-2 -13 -4 -3 -4 22 0 25 2 35 4 23 2 -13 2 -33 0
-45z m3263 53 c0 -6 -4 -13 -10 -16 -5 -3 -10 1 -10 9 0 9 5 16 10 16 6 0 10
-4 10 -9z m30 -46 c0 -22 -2 -24 -14 -13 -10 9 -11 17 -4 26 15 17 18 15 18
-13z m-3140 -5 c0 -5 -7 -10 -15 -10 -8 0 -15 5 -15 10 0 6 7 10 15 10 8 0 15
-4 15 -10z m5820 -25 c0 -8 -5 -15 -10 -15 -6 0 -15 -11 -20 -24 -5 -13 -18
-27 -29 -31 -12 -3 -21 -10 -21 -15 0 -11 -92 -5 -115 7 -14 8 -2 16 66 42 46
17 91 35 99 40 22 14 30 13 30 -4z m2513 -2 c-7 -2 -21 -2 -30 0 -10 3 -4 5
12 5 17 0 24 -2 18 -5z m-5186 -63 c4 -10 8 -6 13 15 l8 30 1 -31 c0 -18 -6
-45 -15 -60 l-16 -29 6 28 c4 15 2 27 -4 27 -5 0 -9 19 -9 43 1 25 3 32 6 17
2 -14 7 -32 10 -40z m-5373 4 c3 -8 2 -12 -4 -9 -6 3 -10 1 -10 -6 0 -7 -2
-10 -5 -7 -5 5 4 38 10 38 2 0 6 -7 9 -16z m10576 12 c0 -16 -15 -36 -27 -36
-8 0 -23 -5 -34 -11 -20 -10 -20 -11 -3 -30 12 -13 15 -23 8 -27 -19 -12 -34
-50 -28 -67 4 -9 17 -21 30 -26 13 -4 24 -13 24 -18 0 -16 -40 -24 -55 -11
-14 12 -16 21 -16 80 1 19 1 52 1 73 0 24 5 39 15 43 8 4 15 12 15 20 0 9 12
14 35 14 19 0 35 -2 35 -4z m-3673 -21 c8 -22 -6 -33 -17 -15 -13 20 -12 30 0
30 6 0 13 -7 17 -15z m-6947 -15 c0 -5 -7 -10 -16 -10 -8 0 -12 5 -9 10 3 6
10 10 16 10 5 0 9 -4 9 -10z m5387 -37 c-3 -10 -5 -2 -5 17 0 19 2 27 5 18 2
-10 2 -26 0 -35z m-5307 32 c0 -6 -268 -135 -280 -135 -5 0 -10 -4 -12 -8 -5
-13 -89 -51 -85 -38 5 16 337 183 370 185 4 1 7 -1 7 -4z m10565 -5 c-3 -5
-13 -10 -21 -10 -8 0 -12 5 -9 10 3 6 13 10 21 10 8 0 12 -4 9 -10z m-10650
-83 c-41 -24 -95 -46 -95 -39 0 10 103 61 110 55 3 -2 -4 -10 -15 -16z m5402
17 c-3 -3 -12 -4 -19 -1 -8 3 -5 6 6 6 11 1 17 -2 13 -5z m1431 -61 c-10 -2
-26 -2 -35 0 -10 3 -2 5 17 5 19 0 27 -2 18 -5z m-1507 -46 c-10 -9 -11 -8 -5
6 3 10 9 15 12 12 3 -3 0 -11 -7 -18z m-5357 -11 c-3 -9 -12 -16 -20 -16 -11
0 -10 4 4 18 20 22 25 21 16 -2z m10704 8 c-9 -9 -22 -14 -30 -11 -8 3 -4 8
12 15 35 15 37 14 18 -4z m-3978 -73 c0 -6 -4 -13 -10 -16 -5 -3 -10 1 -10 9
0 9 5 16 10 16 6 0 10 -4 10 -9z m4950 -101 c0 -5 -4 -10 -9 -10 -6 0 -13 5
-16 10 -3 6 1 10 9 10 9 0 16 -4 16 -10z m1570 -10 c-70 -42 -121 -68 -100
-51 14 12 31 26 38 31 6 6 12 8 12 5 0 -4 12 2 27 13 16 11 30 18 33 15 3 -2
-2 -9 -10 -13z m-9287 -15 c-3 -9 -8 -14 -10 -11 -3 3 -2 9 2 15 9 16 15 13 8
-4z m7671 -16 c15 -17 26 -32 24 -34 -11 -11 -144 -75 -156 -75 -9 0 -6 10 11
33 68 94 79 107 86 107 4 0 20 -14 35 -31z m73 15 c-3 -3 -12 -4 -19 -1 -8 3
-5 6 6 6 11 1 17 -2 13 -5z m158 -24 c3 -5 1 -10 -4 -10 -6 0 -11 5 -11 10 0
6 2 10 4 10 3 0 8 -4 11 -10z m-105 -10 c0 -5 -10 -10 -22 -9 -22 0 -22 1 -3
9 11 5 21 9 23 9 1 1 2 -3 2 -9z m-7828 -32 c-7 -7 -12 -8 -12 -2 0 14 12 26
19 19 2 -3 -1 -11 -7 -17z m9183 2 c-3 -5 -11 -10 -16 -10 -6 0 -7 5 -4 10 3
6 11 10 16 10 6 0 7 -4 4 -10z m-40 -20 c3 -5 -3 -10 -14 -10 -12 0 -21 -4
-21 -8 0 -4 -13 -13 -30 -19 -16 -6 -30 -7 -30 -2 0 5 6 9 13 9 6 0 23 9 37
20 29 22 36 24 45 10z m-9188 -82 c-3 -8 -6 -5 -6 6 -1 11 2 17 5 13 3 -3 4
-12 1 -19z m9040 6 c-3 -3 -12 -4 -19 -1 -8 3 -5 6 6 6 11 1 17 -2 13 -5z
m-72 -24 c-3 -5 -11 -10 -16 -10 -6 0 -7 5 -4 10 3 6 11 10 16 10 6 0 7 -4 4
-10z m115 -106 c12 -138 22 -587 25 -1127 2 -318 6 -462 14 -470 17 -17 13
-36 -6 -35 -10 0 -25 -1 -33 -4 -8 -3 -12 -3 -7 -1 4 3 7 14 6 26 0 21 -1 21
-9 2 -5 -11 -9 -15 -9 -10 -1 6 -5 4 -9 -3 -6 -8 -13 8 -22 45 -11 46 -14 202
-14 760 -1 696 -1 702 -22 730 -11 15 -30 33 -41 38 -18 9 -18 14 -7 58 9 34
9 47 1 47 -18 0 29 30 70 44 21 8 42 10 46 6 5 -4 12 -52 17 -106z m-642 50
c78 -66 82 -70 62 -59 -34 19 -149 115 -137 115 4 0 38 -25 75 -56z m387 6
c-3 -5 -12 -10 -18 -10 -7 0 -6 4 3 10 19 12 23 12 15 0z m-8858 -32 c-3 -7
-5 -2 -5 12 0 14 2 19 5 13 2 -7 2 -19 0 -25z m7559 7 c-21 -16 -32 -13 -21 4
3 6 14 11 23 11 15 -1 15 -2 -2 -15z m1161 -11 c-3 -3 -12 -4 -19 -1 -8 3 -5
6 6 6 11 1 17 -2 13 -5z m-60 -10 c-3 -3 -12 -4 -19 -1 -8 3 -5 6 6 6 11 1 17
-2 13 -5z m-8670 -26 c-3 -8 -6 -5 -6 6 -1 11 2 17 5 13 3 -3 4 -12 1 -19z
m9013 -91 c0 -6 -11 2 -25 17 -14 15 -25 30 -25 33 0 4 11 -4 25 -17 14 -13
25 -28 25 -33z m-9033 21 c-3 -8 -6 -5 -6 6 -1 11 2 17 5 13 3 -3 4 -12 1 -19z
m-5333 -77 c16 -3 31 -12 34 -20 4 -11 -12 -12 -89 -6 -153 12 -156 13 -119
25 30 9 133 10 174 1z m14383 -13 c-3 -8 -6 -5 -6 6 -1 11 2 17 5 13 3 -3 4
-12 1 -19z m-14266 -3 c-37 -17 -71 -20 -71 -7 0 5 14 9 31 10 17 0 34 3 37 6
3 3 12 6 21 6 9 -1 1 -7 -18 -15z m14704 -15 c-3 -5 -14 -10 -23 -10 -15 0
-15 2 -2 10 20 13 33 13 25 0z m61 -22 c4 -6 2 -14 -5 -16 -9 -3 -9 -7 0 -18
18 -22 0 -30 -56 -23 -27 3 -38 7 -22 7 30 2 38 22 8 22 -11 0 -23 5 -26 10
-4 6 8 10 29 10 19 0 38 5 41 10 8 13 22 13 31 -2z m-499 -35 c-3 -10 -5 -4
-5 12 0 17 2 24 5 18 2 -7 2 -21 0 -30z m3 -59 c0 -19 -4 -33 -8 -30 -8 5 -4
66 4 66 2 0 4 -16 4 -36z m-8917 -11 c-7 -2 -13 -11 -13 -19 0 -9 -8 -13 -22
-11 -13 2 -18 2 -11 0 18 -6 11 -99 -10 -123 -9 -11 -17 -24 -17 -29 0 -5 -4
-11 -9 -13 -5 -1 -18 -21 -30 -43 l-21 -40 0 91 c0 61 4 96 14 109 13 18 14
18 20 -3 9 -28 18 -28 35 1 13 20 13 21 -3 8 -23 -19 -31 -8 -10 14 13 13 14
19 5 25 -9 5 -8 9 6 15 10 5 24 7 32 6 7 -1 10 2 6 8 -4 7 3 11 17 10 13 0 17
-3 11 -6z m17 -48 c0 -8 -5 -15 -10 -15 -6 0 -15 -10 -20 -22 l-9 -23 0 22
c-1 31 9 53 25 53 8 0 14 -7 14 -15z m8893 -50 c-3 -9 -8 -14 -10 -11 -3 3 -2
9 2 15 9 16 15 13 8 -4z m-14229 -104 c-6 -6 -11 1 -18 29 l-7 25 15 -25 c8
-14 12 -27 10 -29z m5143 -23 c-3 -7 -5 -2 -5 12 0 14 2 19 5 13 2 -7 2 -19 0
-25z m-5107 -1 c0 -21 -70 -151 -77 -143 -2 2 12 30 32 62 19 33 35 69 35 82
0 12 2 22 5 22 3 0 5 -10 5 -23z m5007 -79 c-3 -7 -5 -2 -5 12 0 14 2 19 5 13
2 -7 2 -19 0 -25z m9180 -20 c-3 -8 -6 -5 -6 6 -1 11 2 17 5 13 3 -3 4 -12 1
-19z m-14989 -40 c-8 -7 -25 -22 -38 -33 -20 -16 -19 -13 4 13 17 17 34 32 39
32 4 0 2 -6 -5 -12z m5747 1 c11 -16 1 -19 -13 -3 -7 8 -8 14 -3 14 5 0 13 -5
16 -11z m-5825 -29 c0 -5 -5 -10 -11 -10 -5 0 -7 5 -4 10 3 6 8 10 11 10 2 0
4 -4 4 -10z m3020 -17 c-19 -15 -58 -51 -87 -80 -52 -53 -76 -97 -187 -335
-24 -54 -49 -98 -54 -98 -6 0 -1 17 9 38 21 39 24 117 6 140 -5 6 -6 12 -1 12
5 0 10 37 11 82 1 49 6 84 12 86 6 2 11 10 11 18 0 8 6 14 13 14 7 0 29 9 50
20 20 11 44 20 52 20 8 0 15 4 15 9 0 5 8 7 18 5 10 -2 44 17 82 46 36 27 70
50 75 50 6 0 -6 -12 -25 -27z m2781 -10 c-12 -20 -14 -14 -5 12 4 9 9 14 11
11 3 -2 0 -13 -6 -23z m-5264 -35 c-3 -8 -6 -5 -6 6 -1 11 2 17 5 13 3 -3 4
-12 1 -19z m297 7 c-4 -8 -8 -15 -10 -15 -2 0 -4 7 -4 15 0 8 4 15 10 15 5 0
7 -7 4 -15z m14233 -17 c-3 -7 -5 -2 -5 12 0 14 2 19 5 13 2 -7 2 -19 0 -25z
m0 -90 c-3 -7 -5 -2 -5 12 0 14 2 19 5 13 2 -7 2 -19 0 -25z m-10800 0 c-3 -8
-6 -5 -6 6 -1 11 2 17 5 13 3 -3 4 -12 1 -19z m923 12 c0 -5 -4 -10 -10 -10
-5 0 -10 5 -10 10 0 6 5 10 10 10 6 0 10 -4 10 -10z m-20 -20 c0 -5 -4 -10
-10 -10 -5 0 -10 5 -10 10 0 6 5 10 10 10 6 0 10 -4 10 -10z m60 -15 c17 -9
30 -21 30 -28 0 -8 -4 -7 -10 3 -8 12 -10 11 -10 -7 0 -17 4 -21 18 -16 15 6
15 5 3 -10 -7 -9 -23 -17 -35 -16 -11 0 -15 3 -8 6 6 2 12 12 11 21 0 11 -2
12 -6 5 -6 -16 -30 -17 -39 -1 -5 7 -2 9 7 6 15 -6 42 16 32 26 -4 3 -15 6
-25 6 -10 0 -18 5 -18 10 0 14 16 12 50 -5z m420 -18 c0 -15 -36 -57 -50 -57
-20 0 -21 22 0 27 12 3 19 11 16 19 -3 7 0 15 7 18 21 8 27 6 27 -7z m5874
-12 c3 -9 22 -25 42 -37 35 -21 35 -21 29 -72 -4 -28 -9 -58 -11 -67 -3 -9 3
-24 11 -33 15 -15 15 -16 -2 -16 -17 -1 -17 -1 0 -11 9 -6 17 -22 17 -37 l0
-27 83 -1 c91 0 137 -9 137 -25 0 -6 -7 -9 -15 -5 -8 3 -15 2 -15 -3 0 -16
-101 -30 -134 -18 -17 6 -33 13 -36 16 -3 3 -23 15 -44 26 -37 19 -77 61 -83
88 -1 6 -6 28 -10 47 -10 40 -9 86 1 148 8 43 19 54 30 27z m-10891 -15 c5 -4
-22 -6 -60 -3 -37 3 -72 9 -78 15 -12 13 126 1 138 -12z m4529 13 c-6 -2 -9
-10 -6 -15 4 -7 2 -8 -5 -4 -13 9 -5 26 12 25 9 0 8 -2 -1 -6z m6493 -13 c3
-5 1 -10 -4 -10 -6 0 -11 5 -11 10 0 6 2 10 4 10 3 0 8 -4 11 -10z m-6908 -50
c13 0 30 -106 28 -170 -2 -86 -19 -120 -76 -158 -27 -18 -55 -30 -61 -26 -5 4
-13 2 -17 -4 -4 -6 -20 -13 -36 -16 -27 -4 -36 3 -83 60 -29 35 -47 64 -40 64
8 0 9 3 2 8 -12 8 -6 102 7 102 5 0 9 12 9 26 0 23 43 94 63 102 4 2 4 8 1 14
-5 7 3 9 22 4 19 -4 24 -3 15 2 -18 13 -2 21 47 24 23 2 42 7 42 12 0 4 15 -3
34 -18 19 -14 38 -26 43 -26z m10320 -12 c-2 -13 -4 -5 -4 17 -1 22 1 32 4 23
2 -10 2 -28 0 -40z m-14436 32 c5 0 9 -4 9 -9 0 -4 -11 -6 -25 -3 -14 2 -25 9
-25 14 0 6 7 7 16 4 9 -3 20 -6 25 -6z m5039 -11 c0 -5 -3 -8 -7 -8 -20 3 -34
-2 -28 -11 3 -5 -1 -10 -9 -10 -21 0 -20 5 6 29 20 20 38 20 38 0z m6040 1 c0
-5 -7 -7 -15 -4 -8 4 -12 10 -9 15 6 11 24 2 24 -11z m-6127 -4 c9 -7 17 -16
17 -20 0 -9 -33 -7 -49 3 -7 5 -10 14 -7 20 9 14 17 14 39 -3z m-1306 -68 c-2
-13 -4 -5 -4 17 -1 22 1 32 4 23 2 -10 2 -28 0 -40z m1290 19 c3 -4 19 -7 35
-7 18 0 27 -4 22 -11 -3 -6 -18 -8 -33 -5 -19 5 -22 4 -11 -3 22 -15 -1 -34
-32 -26 -18 5 -25 13 -24 28 1 12 -3 25 -9 29 -5 4 3 6 18 4 15 -1 30 -6 34
-9z m-104 -89 c-4 -14 -8 -15 -24 -5 -26 16 -24 27 5 25 17 -2 22 -7 19 -20z
m-1170 -33 c4 -27 3 -35 -3 -25 -5 8 -10 28 -10 44 0 39 6 30 13 -19z m1115
18 c-2 -10 -14 -19 -28 -21 l-25 -4 20 20 c25 26 37 27 33 5z m32 -3 c0 -5 -4
-10 -10 -10 -5 0 -10 5 -10 10 0 6 5 10 10 10 6 0 10 -4 10 -10z m9627 -22
c-3 -8 -6 -5 -6 6 -1 11 2 17 5 13 3 -3 4 -12 1 -19z m-14390 -50 c-3 -8 -6
-5 -6 6 -1 11 2 17 5 13 3 -3 4 -12 1 -19z m3783 -96 c14 -7 17 -10 7 -8 -15
5 -16 3 -6 -17 6 -12 18 -29 26 -39 8 -9 10 -18 5 -22 -8 -5 -48 48 -48 64 0
3 -12 18 -27 34 -15 16 -27 34 -27 40 0 6 11 0 23 -14 12 -14 33 -31 47 -38z
m-153 16 c-3 -7 -5 -2 -5 12 0 14 2 19 5 13 2 -7 2 -19 0 -25z m-3666 -29 c-5
-13 -10 -19 -10 -12 -1 15 10 45 15 40 3 -2 0 -15 -5 -28z m3884 -94 c-4 -22
-3 -25 3 -10 8 18 10 16 24 -15 9 -19 23 -62 33 -95 10 -33 22 -71 27 -84 10
-27 5 -36 -15 -28 -8 3 -18 23 -21 44 -8 43 -40 115 -70 156 -16 22 -18 31 -9
46 9 15 9 23 -2 37 -25 33 -15 40 10 9 19 -22 24 -38 20 -60z m-3895 45 c0
-11 -4 -20 -9 -20 -5 0 -7 9 -4 20 3 11 7 20 9 20 2 0 4 -9 4 -20z m440 -60
c11 -11 23 -20 26 -19 3 0 8 -2 12 -5 3 -3 1 -6 -5 -6 -6 0 -9 -9 -5 -22 3
-14 2 -19 -6 -14 -7 4 -12 15 -12 24 0 9 -12 26 -27 39 -16 12 -22 22 -15 23
6 0 21 -9 32 -20z m4308 -57 c-12 -32 -25 -62 -30 -68 -8 -9 4 29 31 98 21 53
20 26 -1 -30z m-4405 2 c-3 -9 -8 -14 -10 -11 -3 3 -2 9 2 15 9 16 15 13 8 -4z
m24 -37 c-2 -13 -4 -5 -4 17 -1 22 1 32 4 23 2 -10 2 -28 0 -40z m173 26 c0
-8 4 -13 9 -10 5 4 7 -3 4 -14 -3 -11 -1 -20 4 -20 5 0 10 -6 10 -13 0 -7 3
-26 7 -42 12 -47 0 -27 -28 49 -29 77 -30 80 -16 71 6 -3 10 -13 10 -21z m-60
-28 c0 -2 -7 -9 -15 -16 -13 -11 -14 -10 -9 4 5 14 24 23 24 12z m-132 -41
c-3 -3 -9 2 -12 12 -6 14 -5 15 5 6 7 -7 10 -15 7 -18z m4353 -32 c-12 -20
-14 -14 -5 12 4 9 9 14 11 11 3 -2 0 -13 -6 -23z m-4140 -88 c5 3 6 -1 3 -9
-8 -22 -24 -10 -23 17 1 17 2 18 6 4 2 -9 9 -15 14 -12z m3338 -49 c6 -35 18
-83 26 -106 8 -24 15 -52 14 -64 -1 -25 -1 -25 -32 94 -35 133 -39 153 -28
146 5 -3 14 -35 20 -70z m-3494 -16 c3 -5 2 -10 -4 -10 -5 0 -13 5 -16 10 -3
6 -2 10 4 10 5 0 13 -4 16 -10z m382 -62 c-3 -8 -6 -5 -6 6 -1 11 2 17 5 13 3
-3 4 -12 1 -19z m37 -10 c4 -18 6 -49 6 -68 0 -27 2 -31 10 -20 5 8 10 10 10
5 0 -6 -6 -17 -12 -24 -8 -8 -9 -15 -3 -17 15 -6 1 -304 -20 -411 -10 -56 -21
-90 -28 -86 -6 4 -8 -8 -4 -33 3 -21 3 -31 1 -21 -3 9 -10 17 -15 17 -12 0
-11 -7 2 -32 8 -15 8 -23 -2 -32 -6 -6 -10 -6 -7 -1 8 15 -10 57 -22 50 -6 -4
-8 -11 -5 -16 8 -12 -4 -31 -14 -24 -5 2 -1 40 9 82 27 118 33 177 33 306 -1
81 3 117 11 117 6 0 5 4 -3 9 -7 5 -15 27 -17 49 -2 22 -4 44 -5 48 -4 15 18
59 35 73 9 7 16 24 16 37 0 35 17 29 24 -8z m3787 5 c-12 -20 -14 -14 -5 12 4
9 9 14 11 11 3 -2 0 -13 -6 -23z m-3999 -55 c-8 -8 -9 -4 -5 13 4 13 8 18 11
10 2 -7 -1 -18 -6 -23z m-182 14 c0 -4 -7 -18 -16 -31 -15 -21 -18 -22 -26 -6
-7 12 -5 20 9 30 20 16 33 19 33 7z m4155 -13 c-9 -26 -166 -252 -203 -292
-15 -16 -49 -47 -77 -69 l-50 -41 55 55 c89 88 168 190 240 310 38 62 45 70
35 37z m-3915 -29 c0 -5 -12 -10 -27 -9 l-28 1 25 8 c14 4 26 8 28 9 1 1 2 -3
2 -9z m-90 -4 c0 -3 -4 -8 -10 -11 -5 -3 -10 -1 -10 4 0 6 5 11 10 11 6 0 10
-2 10 -4z m3380 -61 c0 -5 -5 -3 -10 5 -5 8 -10 20 -10 25 0 6 5 3 10 -5 5 -8
10 -19 10 -25z m10833 -12 c-7 -2 -19 -2 -25 0 -7 3 -2 5 12 5 14 0 19 -2 13
-5z m-10528 -123 c-3 -5 -11 -10 -16 -10 -6 0 -7 5 -4 10 3 6 11 10 16 10 6 0
7 -4 4 -10z m3722 -66 c-3 -3 -12 -4 -19 -1 -8 3 -5 6 6 6 11 1 17 -2 13 -5z
m-7022 -100 c-19 -26 -35 -51 -35 -57 0 -6 -3 -8 -6 -4 -8 8 55 107 68 107 5
0 -7 -21 -27 -46z m-74 -121 c-15 -27 -67 -117 -115 -201 -79 -140 -186 -298
-186 -276 0 5 7 20 16 32 8 12 12 27 8 34 -4 6 -3 8 4 4 11 -6 82 91 82 113 0
6 4 11 8 11 10 0 32 44 32 62 0 7 -7 3 -15 -8 -8 -10 -15 -14 -15 -8 0 14 21
33 35 31 9 0 47 58 137 208 15 25 29 45 32 45 3 0 -7 -21 -23 -47z m8154 -73
c-10 -11 -20 -18 -23 -15 -7 6 18 35 31 35 5 0 2 -9 -8 -20z m-45 -45 c-7 -8
-16 -15 -21 -15 -5 0 -1 8 9 18 20 22 31 19 12 -3z m-8249 -68 c-13 -13 -26
-3 -16 12 3 6 11 8 17 5 6 -4 6 -10 -1 -17z m-51 -47 c0 -5 -5 -10 -11 -10 -5
0 -7 5 -4 10 3 6 8 10 11 10 2 0 4 -4 4 -10z m8151 -103 c-10 -9 -11 -8 -5 6
3 10 9 15 12 12 3 -3 0 -11 -7 -18z m-51 -57 c-25 -21 -48 -39 -52 -40 -10 0
17 27 56 58 47 36 44 25 -4 -18z m-8645 -216 c28 -13 39 -22 25 -18 -23 6 -92
44 -80 44 3 0 28 -12 55 -26z m220 -24 c-11 -5 -33 -8 -50 -8 -29 1 -29 1 5 8
49 10 69 10 45 0z m-107 -7 c-10 -2 -28 -2 -40 0 -13 2 -5 4 17 4 22 1 32 -1
23 -4z"/>
<path d="M19958 17193 c-55 -63 -130 -323 -177 -616 -32 -198 -34 -216 -23
-230 5 -6 10 -45 11 -86 1 -68 0 -73 -14 -55 -11 15 -15 16 -16 4 -1 -8 -3
-26 -4 -40 -2 -14 -6 -95 -10 -180 -3 -85 -8 -163 -11 -172 -3 -10 -1 -18 5
-18 6 0 11 15 11 33 0 31 68 256 90 296 6 11 6 30 0 50 -5 19 -5 31 1 31 5 0
9 -10 10 -22 0 -19 3 -17 16 12 17 38 21 50 57 190 13 52 33 129 44 170 30
112 68 300 87 433 23 159 13 217 -40 217 -12 0 -29 -8 -37 -17z m-61 -705 c-3
-7 -5 -2 -5 12 0 14 2 19 5 13 2 -7 2 -19 0 -25z m-30 0 c-3 -8 -6 -5 -6 6 -1
11 2 17 5 13 3 -3 4 -12 1 -19z m3 -38 c0 -5 -5 -10 -11 -10 -5 0 -7 5 -4 10
3 6 8 10 11 10 2 0 4 -4 4 -10z m10 -42 c0 -6 -6 -5 -15 2 -8 7 -15 14 -15 16
0 2 7 1 15 -2 8 -4 15 -11 15 -16z m-83 -120 c-3 -8 -6 -5 -6 6 -1 11 2 17 5
13 3 -3 4 -12 1 -19z m48 -28 c-3 -5 -10 -10 -16 -10 -5 0 -9 5 -9 10 0 6 7
10 16 10 8 0 12 -4 9 -10z m-17 -36 c-10 -10 -28 6 -28 24 0 15 1 15 17 -1 9
-9 14 -19 11 -23z m-31 -76 c-3 -8 -6 -5 -6 6 -1 11 2 17 5 13 3 -3 4 -12 1
-19z"/>
<path d="M19733 17075 c-3 -9 -3 -18 -1 -21 3 -3 8 4 11 16 6 23 -1 27 -10 5z"/>
<path d="M19721 17014 c0 -11 3 -14 6 -6 3 7 2 16 -1 19 -3 4 -6 -2 -5 -13z"/>
<path d="M19723 16270 c0 -30 2 -43 4 -27 2 15 2 39 0 55 -2 15 -4 2 -4 -28z"/>
<path d="M19783 15395 c-3 -9 -3 -18 -1 -21 3 -3 8 4 11 16 6 23 -1 27 -10 5z"/>
<path d="M20580 15119 c0 -5 5 -7 10 -4 6 3 10 8 10 11 0 2 -4 4 -10 4 -5 0
-10 -5 -10 -11z"/>
<path d="M20506 15063 c-6 -14 -5 -15 5 -6 7 7 10 15 7 18 -3 3 -9 -2 -12 -12z"/>
<path d="M20421 14894 c0 -11 3 -14 6 -6 3 7 2 16 -1 19 -3 4 -6 -2 -5 -13z"/>
<path d="M19437 14862 c-9 -23 -22 -41 -29 -40 -6 2 -14 -10 -18 -27 -3 -20
-8 -26 -13 -17 -5 6 -5 18 -1 25 5 8 2 7 -10 -2 -9 -8 -15 -20 -12 -28 3 -7 1
-13 -4 -13 -6 0 -10 -6 -10 -14 0 -8 -7 -16 -15 -20 -8 -3 -15 -11 -15 -17 0
-7 -7 -21 -16 -30 -9 -10 -16 -30 -16 -44 0 -14 -4 -25 -8 -25 -9 0 -26 -45
-29 -78 0 -7 -5 -11 -10 -8 -5 3 -9 0 -8 -7 2 -51 -4 -77 -18 -77 -8 0 -15 -5
-15 -11 0 -5 5 -7 10 -4 13 8 13 -1 -2 -28 -21 -37 -33 -38 -40 -4 -3 17 -3
34 1 37 8 5 22 134 25 225 2 55 -15 99 -50 131 -19 18 -24 19 -28 7 -9 -21 -7
-35 3 -29 4 3 19 -6 32 -20 22 -23 24 -33 21 -102 -2 -42 -4 -105 -5 -139 -1
-35 -5 -63 -9 -63 -5 0 -8 5 -8 11 0 14 -50 62 -58 55 -2 -3 0 -11 6 -19 6 -7
10 -23 9 -34 -1 -17 -4 -19 -14 -11 -20 17 -15 -5 10 -42 53 -79 140 -55 211
58 27 43 29 73 2 37 -9 -12 -15 -15 -20 -7 -9 15 2 34 15 27 5 -4 9 2 9 12 0
10 5 25 11 33 8 12 9 9 5 -12 -9 -39 7 -35 22 5 38 95 113 329 110 339 -3 7
-12 -7 -21 -30z m-30 -94 c-3 -8 -6 -5 -6 6 -1 11 2 17 5 13 3 -3 4 -12 1 -19z
m-20 -50 c-3 -8 -6 -5 -6 6 -1 11 2 17 5 13 3 -3 4 -12 1 -19z m-37 -68 c0 -5
-5 -10 -11 -10 -5 0 -7 5 -4 10 3 6 8 10 11 10 2 0 4 -4 4 -10z m-15 -60 c3
-5 2 -10 -4 -10 -5 0 -13 5 -16 10 -3 6 -2 10 4 10 5 0 13 -4 16 -10z m-39
-36 c-4 -9 -9 -15 -11 -12 -3 3 -3 13 1 22 4 9 9 15 11 12 3 -3 3 -13 -1 -22z"/>
<path d="M19100 14750 c-8 -5 -11 -12 -7 -17 5 -4 12 -1 17 6 6 11 9 10 13 -5
4 -16 5 -16 6 -2 1 22 -11 29 -29 18z"/>
<path d="M19142 14700 c0 -14 2 -19 5 -12 2 6 2 18 0 25 -3 6 -5 1 -5 -13z"/>
<path d="M19066 14624 c-8 -20 -8 -24 2 -24 4 0 8 9 9 20 2 24 -3 26 -11 4z"/>
<path d="M19040 14532 c0 -35 4 -62 10 -62 11 0 7 106 -4 117 -3 3 -6 -21 -6
-55z"/>
<path d="M19078 14570 c-7 -24 -3 -38 8 -28 3 4 4 17 2 30 l-3 23 -7 -25z"/>
<path d="M19516 14497 c-35 -90 -97 -188 -147 -234 -38 -34 -106 -65 -155 -71
-40 -4 -57 -16 -35 -24 5 -1 11 -10 13 -18 11 -53 110 -99 146 -68 9 8 26 18
36 22 10 3 16 9 14 12 -3 3 10 20 28 38 19 19 34 38 33 42 -1 5 4 25 12 44 7
19 12 39 11 44 -2 4 5 14 14 20 9 7 17 24 17 38 1 14 5 24 10 21 4 -2 5 12 2
32 -2 21 0 33 5 30 6 -4 10 5 10 19 0 14 7 51 15 82 8 32 13 59 12 61 -2 2
-20 -39 -41 -90z"/>
<path d="M19700 14580 c0 -5 5 -10 11 -10 5 0 7 5 4 10 -3 6 -8 10 -11 10 -2
0 -4 -4 -4 -10z"/>
<path d="M18877 14567 c-4 -11 -4 -24 0 -30 4 -6 6 -24 5 -39 -1 -14 2 -29 8
-33 12 -7 12 22 2 80 -6 31 -9 36 -15 22z"/>
<path d="M19881 14466 c2 -2 14 -8 25 -14 17 -9 25 -8 34 3 11 13 7 15 -25 15
-21 0 -36 -2 -34 -4z"/>
<path d="M17700 14301 c-35 -67 22 -170 127 -228 18 -10 22 -9 27 10 10 41 -1
123 -23 165 -32 64 -108 94 -131 53z"/>
<path d="M16770 13850 c-12 -16 -19 -30 -16 -30 2 0 14 14 26 30 12 17 19 30
16 30 -2 0 -14 -13 -26 -30z"/>
<path d="M16725 13800 c-3 -6 1 -7 9 -4 18 7 21 14 7 14 -6 0 -13 -4 -16 -10z"/>
<path d="M17965 13800 c-3 -5 -1 -10 4 -10 6 0 11 5 11 10 0 6 -2 10 -4 10 -3
0 -8 -4 -11 -10z"/>
<path d="M16476 13505 c-9 -14 -15 -25 -13 -25 2 0 13 11 25 25 12 14 18 25
13 25 -5 0 -16 -11 -25 -25z"/>
<path d="M15576 13288 c-22 -30 -20 -60 5 -103 20 -34 82 -84 123 -99 17 -6
18 -2 14 57 -6 68 -37 140 -67 157 -31 16 -59 12 -75 -12z"/>
<path d="M17715 13130 c4 -6 11 -8 16 -5 14 9 11 15 -7 15 -8 0 -12 -5 -9 -10z"/>
<path d="M16059 13113 c-13 -16 -12 -17 4 -4 16 13 21 21 13 21 -2 0 -10 -8
-17 -17z"/>
<path d="M14872 12798 c-70 -73 -92 -99 -92 -110 0 -5 -13 -23 -29 -40 -15
-17 -41 -52 -57 -79 -16 -27 -34 -49 -41 -49 -6 0 -25 -23 -42 -50 -34 -55
-36 -60 -21 -60 5 0 18 17 29 38 20 39 51 72 51 54 0 -5 -7 -15 -15 -22 -9 -7
-14 -19 -11 -27 3 -7 -1 -13 -9 -13 -8 0 -15 -7 -15 -15 0 -9 -6 -18 -14 -21
-23 -9 -256 -495 -256 -535 0 -10 4 -19 9 -19 5 0 13 -15 16 -32 4 -18 11 -38
15 -43 5 -6 23 -69 41 -140 38 -152 45 -164 83 -140 14 10 26 22 26 28 0 6 6
18 14 26 8 9 33 53 55 98 25 51 48 84 61 88 27 9 26 25 -2 26 -13 0 -17 3 -10
6 6 2 12 11 12 19 0 8 5 14 10 14 6 0 10 5 10 12 0 12 32 79 142 306 47 95 53
102 80 102 20 0 29 4 25 13 -7 19 11 57 28 57 20 0 20 1 -13 57 -15 26 -34 68
-42 93 -20 61 -19 245 2 335 9 39 15 71 13 73 -1 1 -25 -21 -53 -50z m-12
-127 c0 -5 -10 -11 -22 -14 -22 -6 -22 -6 -4 8 23 17 26 18 26 6z m-60 -25 c0
-2 -8 -10 -17 -17 -16 -13 -17 -12 -4 4 13 16 21 21 21 13z m-77 -113 c-4 -10
-2 -14 4 -10 7 5 9 0 6 -13 -5 -20 -22 -23 -35 -5 -13 17 -9 28 6 16 11 -9 12
-6 8 15 -3 18 -1 25 6 20 6 -4 8 -14 5 -23z m47 -23 c0 -11 -2 -20 -4 -20 -2
0 -6 9 -9 20 -3 11 -1 20 4 20 5 0 9 -9 9 -20z m-90 -105 c-7 -8 -20 -15 -29
-15 -11 1 -8 5 9 15 32 18 35 18 20 0z m205 -4 c-3 -6 -11 -11 -16 -11 -5 0
-4 6 3 14 14 16 24 13 13 -3z"/>
<path d="M13705 12371 c-54 -14 -149 -63 -200 -105 -76 -63 -138 -126 -130
-134 3 -4 22 10 41 31 19 20 37 37 41 37 3 0 11 8 18 17 12 16 14 16 29 0 10
-9 23 -17 29 -17 7 0 4 5 -6 11 -16 9 -14 13 17 46 28 30 37 35 49 25 12 -10
14 -8 10 12 -4 19 0 25 23 30 16 4 32 13 36 19 4 6 17 12 30 13 26 2 81 23 58
22 -8 0 -28 -3 -45 -7z"/>
<path d="M13795 12350 c-3 -6 1 -7 9 -4 18 7 21 14 7 14 -6 0 -13 -4 -16 -10z"/>
<path d="M13340 12105 c0 -8 -4 -15 -10 -15 -5 0 -10 -5 -10 -12 0 -6 9 -3 20
7 22 20 26 35 10 35 -5 0 -10 -7 -10 -15z"/>
<path d="M13405 11799 c-4 -6 -14 -8 -22 -5 -8 4 -11 2 -7 -5 4 -6 0 -15 -7
-20 -7 -4 -11 -10 -8 -13 3 -3 18 8 34 24 16 17 26 30 22 30 -3 0 -9 -5 -12
-11z"/>
<path d="M13412 11609 c-23 -23 -40 -44 -37 -47 3 -4 16 6 29 21 13 15 25 25
27 23 2 -2 12 7 22 20 28 38 6 28 -41 -17z"/>
<path d="M13530 11490 c-9 -6 -10 -10 -3 -10 6 0 15 5 18 10 8 12 4 12 -15 0z"/>
<path d="M14427 11141 c-4 -17 -3 -21 5 -13 5 5 8 16 6 23 -3 8 -7 3 -11 -10z"/>
<path d="M13897 10723 c-63 -118 -76 -146 -101 -218 -67 -195 -96 -352 -96
-528 0 -191 47 -408 97 -447 34 -26 36 -26 75 14 145 149 193 513 119 911 -11
61 -28 156 -38 213 -9 56 -20 102 -24 102 -3 0 -17 -21 -32 -47z m72 -293 c1
-40 -19 23 -24 76 l-5 59 15 -60 c8 -33 14 -67 14 -75z"/>
<path d="M14260 10649 c0 -5 5 -7 10 -4 6 3 10 8 10 11 0 2 -4 4 -10 4 -5 0
-10 -5 -10 -11z"/>
<path d="M14182 10305 c0 -16 2 -22 5 -12 2 9 2 23 0 30 -3 6 -5 -1 -5 -18z"/>
<path d="M21309 14945 c-36 -19 -55 -51 -73 -121 -17 -64 -15 -74 8 -51 11 11
28 14 58 10 24 -2 55 -4 70 -4 17 0 34 -9 43 -22 8 -12 15 -17 15 -12 0 6 5 3
10 -5 5 -8 10 -10 11 -5 0 6 2 21 4 35 5 37 -23 142 -43 162 -24 25 -72 31
-103 13z"/>
<path d="M24404 14876 c-43 -19 -84 -76 -88 -122 -6 -61 8 -65 88 -25 39 19
84 37 101 39 16 2 36 7 45 11 8 5 25 7 38 6 28 -2 28 15 0 50 -40 51 -120 69
-184 41z"/>
<path d="M21298 14683 c-30 -5 -76 -46 -90 -83 -5 -14 -21 -86 -34 -160 -13
-74 -26 -147 -29 -161 -13 -68 -22 -157 -20 -186 2 -18 -1 -30 -6 -27 -5 3 -9
-2 -9 -10 0 -8 8 -17 18 -20 17 -6 21 -54 7 -102 -8 -26 39 -64 49 -39 3 8 1
17 -4 20 -18 11 -10 35 11 35 11 0 18 4 15 9 -4 5 7 4 24 -2 18 -7 30 -19 30
-29 0 -28 17 -21 23 10 4 18 1 31 -10 39 -13 10 -13 14 2 35 l16 23 -6 -30
c-6 -29 -6 -29 9 -11 19 24 21 73 4 79 -7 2 -4 3 7 1 17 -3 23 5 32 39 6 23
23 84 37 135 14 51 35 150 46 219 21 123 21 127 3 161 -16 31 -67 65 -90 61
-4 -1 -20 -4 -35 -6z m-11 -569 c-3 -3 -12 -4 -19 -1 -8 3 -5 6 6 6 11 1 17
-2 13 -5z m-20 -80 c-3 -3 -12 -4 -19 -1 -8 3 -5 6 6 6 11 1 17 -2 13 -5z
m-27 -34 c0 -5 -4 -10 -9 -10 -6 0 -13 5 -16 10 -3 6 1 10 9 10 9 0 16 -4 16
-10z m-50 -10 c-20 -13 -33 -13 -25 0 3 6 14 10 23 10 15 0 15 -2 2 -10z m-3
-26 c-3 -3 -12 -4 -19 -1 -8 3 -5 6 6 6 11 1 17 -2 13 -5z"/>
<path d="M25020 14668 c-14 -6 -53 -24 -88 -39 -35 -16 -68 -29 -75 -29 -25 0
-56 -31 -63 -63 -7 -33 -50 -103 -79 -127 -15 -12 -14 -15 7 -26 27 -15 85
-18 90 -5 2 5 29 38 61 74 38 43 63 64 73 60 8 -3 14 -2 12 3 -3 9 12 33 75
115 37 49 34 57 -13 37z"/>
<path d="M24512 14493 c-12 -2 -20 -9 -17 -14 10 -14 42 -11 49 6 3 8 2 14 -2
14 -4 -1 -17 -4 -30 -6z"/>
<path d="M24922 14480 c-6 -11 -8 -21 -3 -25 5 -3 13 4 16 16 9 28 2 33 -13 9z"/>
<path d="M24905 14429 c-4 -6 -5 -12 -2 -15 2 -3 7 2 10 11 7 17 1 20 -8 4z"/>
<path d="M24880 14381 c-12 -24 -13 -34 -1 -27 9 6 22 46 15 46 -2 0 -8 -9
-14 -19z"/>
<path d="M24578 14223 c-17 -20 -79 -135 -75 -139 1 -1 27 -12 57 -24 l55 -22
22 29 c13 15 23 31 23 35 0 18 56 88 67 84 7 -3 13 -2 13 3 0 7 -122 51 -141
51 -3 0 -13 -8 -21 -17z"/>
<path d="M24756 14181 c-4 -7 -5 -15 -2 -18 9 -9 19 4 14 18 -4 11 -6 11 -12
0z"/>
<path d="M24285 14145 c-15 -20 -25 -38 -22 -41 2 -2 17 12 32 31 15 20 25 38
22 41 -2 2 -17 -12 -32 -31z"/>
<path d="M23034 14106 c-35 -15 -114 -83 -114 -97 0 -5 19 -9 43 -9 58 0 144
-55 174 -110 21 -40 22 -40 34 -19 21 40 24 148 5 183 -29 54 -88 76 -142 52z"/>
<path d="M24932 14070 c-12 -28 -22 -55 -22 -60 0 -6 -9 -29 -21 -51 l-20 -41
22 -16 c54 -37 118 -115 151 -184 50 -101 74 -231 49 -262 -21 -25 10 -21 45
6 130 101 151 319 45 471 -40 57 -117 129 -172 161 -25 14 -48 26 -51 26 -2 0
-14 -23 -26 -50z"/>
<path d="M20939 14049 c0 -2 -2 -19 -5 -38 -2 -19 -6 -45 -8 -58 -3 -12 -1
-23 3 -23 9 0 24 110 16 118 -3 3 -5 3 -6 1z"/>
<path d="M21091 14014 c0 -11 3 -14 6 -6 3 7 2 16 -1 19 -3 4 -6 -2 -5 -13z"/>
<path d="M24685 14010 c-3 -5 -1 -10 4 -10 6 0 11 5 11 10 0 6 -2 10 -4 10 -3
0 -8 -4 -11 -10z"/>
<path d="M21086 13952 c-4 -13 -5 -26 -2 -29 10 -11 18 4 14 29 l-4 23 -8 -23z"/>
<path d="M24652 13900 c0 -14 2 -19 5 -12 2 6 2 18 0 25 -3 6 -5 1 -5 -13z"/>
<path d="M22860 13880 c-47 -47 -64 -100 -65 -200 0 -81 4 -103 25 -147 14
-29 30 -53 36 -53 13 0 69 59 142 150 29 36 58 71 64 79 10 12 9 14 -4 9 -13
-5 -15 2 -12 55 1 35 -1 55 -6 48 -5 -10 -10 -4 -15 18 -5 22 -12 31 -26 31
-11 0 -19 7 -19 18 0 14 -2 15 -10 2 -6 -10 -10 -11 -10 -2 0 20 -77 15 -100
-8z"/>
<path d="M21086 13864 c-4 -10 -1 -14 6 -12 15 5 23 28 10 28 -5 0 -13 -7 -16
-16z"/>
<path d="M21133 13873 c20 -5 23 -23 3 -23 -8 0 -16 -7 -19 -14 -6 -16 16 -12
40 7 7 5 22 7 33 4 11 -3 20 -2 20 2 0 9 -61 31 -81 30 -9 -1 -8 -3 4 -6z"/>
<path d="M21227 13837 c-11 -29 -9 -43 4 -30 6 6 9 19 7 29 -3 18 -4 18 -11 1z"/>
<path d="M21158 13815 c-2 -2 -1 -32 3 -67 3 -35 2 -68 -2 -73 -4 -6 -8 -20
-8 -30 0 -11 -3 -36 -6 -55 -6 -35 -6 -35 14 9 12 24 21 56 21 72 0 16 4 29 9
29 5 0 11 10 14 23 2 12 8 31 11 42 4 11 0 7 -9 -8 -20 -35 -37 -25 -29 18 5
29 -5 53 -18 40z"/>
<path d="M24630 13782 c0 -19 -39 -97 -59 -118 -10 -11 -16 -25 -13 -32 2 -6
-1 -12 -6 -12 -12 0 -36 -135 -27 -150 3 -5 1 -10 -5 -10 -16 0 -4 -133 16
-177 24 -51 60 -87 79 -79 9 3 13 2 10 -4 -3 -6 -1 -10 4 -10 6 0 11 5 11 12
0 6 6 3 14 -7 13 -18 18 -19 74 -7 55 11 84 22 120 45 8 6 -4 17 -38 35 -144
77 -209 230 -181 428 7 48 10 89 7 92 -4 3 -6 0 -6 -6z m-43 -244 c-3 -8 -6
-5 -6 6 -1 11 2 17 5 13 3 -3 4 -12 1 -19z m31 -73 c-3 -3 -9 2 -12 12 -6 14
-5 15 5 6 7 -7 10 -15 7 -18z m190 -239 c-7 -8 -15 -12 -17 -11 -5 6 10 25 20
25 5 0 4 -6 -3 -14z"/>
<path d="M21080 13756 c0 -13 -3 -33 -6 -43 -6 -16 -5 -16 9 2 18 22 23 65 7
65 -5 0 -10 -11 -10 -24z"/>
<path d="M24816 13743 c-17 -92 -18 -160 -1 -217 23 -78 75 -126 137 -126 18
0 19 2 7 17 -11 13 -11 15 -1 9 11 -6 12 4 8 50 -9 105 -24 167 -37 158 -5 -3
-9 5 -9 18 0 13 -10 34 -23 48 -12 14 -28 37 -34 53 -18 39 -39 34 -47 -10z"/>
<path d="M21510 13762 c0 -5 7 -13 15 -16 9 -3 15 -11 14 -18 -4 -31 2 -48 16
-48 9 0 15 9 15 21 0 18 2 19 15 9 9 -8 15 -8 15 -2 0 6 9 13 20 15 18 4 18 5
-2 5 -62 0 -70 2 -64 17 3 8 1 15 -3 15 -5 0 -16 3 -25 6 -9 3 -16 2 -16 -4z"/>
<path d="M21425 13720 c3 -5 13 -10 21 -10 8 0 14 5 14 10 0 6 -9 10 -21 10
-11 0 -17 -4 -14 -10z"/>
<path d="M21142 13700 c0 -14 2 -19 5 -12 2 6 2 18 0 25 -3 6 -5 1 -5 -13z"/>
<path d="M21102 13685 c6 -14 13 -23 16 -21 7 7 -9 46 -18 46 -5 0 -4 -11 2
-25z"/>
<path d="M21615 13690 c-7 -12 2 -30 16 -30 12 0 12 27 0 35 -5 3 -12 1 -16
-5z"/>
<path d="M21503 13679 c-9 -11 -8 -20 2 -38 7 -14 11 -41 10 -60 -1 -20 0 -24
2 -8 2 15 11 27 19 27 8 0 14 5 14 10 0 6 -6 10 -14 10 -10 0 -16 13 -18 37
-2 29 -5 34 -15 22z"/>
<path d="M21591 13664 c0 -11 3 -14 6 -6 3 7 2 16 -1 19 -3 4 -6 -2 -5 -13z"/>
<path d="M21696 13644 c-3 -8 -10 -13 -14 -10 -5 3 -7 -6 -4 -21 4 -21 6 -23
14 -9 13 23 37 21 31 -4 -3 -11 0 -20 6 -20 6 0 11 5 11 10 0 6 12 16 28 22
l27 11 -37 10 c-21 6 -38 14 -38 19 0 14 -18 9 -24 -8z"/>
<path d="M21410 13640 c8 -5 20 -10 25 -10 6 0 3 5 -5 10 -8 5 -19 10 -25 10
-5 0 -3 -5 5 -10z"/>
<path d="M21540 13639 c0 -5 5 -7 10 -4 6 3 10 8 10 11 0 2 -4 4 -10 4 -5 0
-10 -5 -10 -11z"/>
<path d="M21112 13615 c0 -16 2 -22 5 -12 2 9 2 23 0 30 -3 6 -5 -1 -5 -18z"/>
<path d="M21065 13620 c-8 -13 15 -24 27 -12 6 6 4 11 -6 15 -8 3 -18 2 -21
-3z"/>
<path d="M21580 13610 c0 -5 5 -10 10 -10 6 0 10 5 10 10 0 6 -4 10 -10 10 -5
0 -10 -4 -10 -10z"/>
<path d="M21450 13590 c0 -19 3 -21 12 -12 9 9 9 15 0 24 -9 9 -12 7 -12 -12z"/>
<path d="M21636 13595 c4 -8 10 -15 15 -15 5 0 9 7 9 15 0 8 -7 15 -15 15 -9
0 -12 -6 -9 -15z"/>
<path d="M21390 13570 c0 -5 5 -10 10 -10 6 0 10 5 10 10 0 6 -4 10 -10 10 -5
0 -10 -4 -10 -10z"/>
<path d="M21535 13570 c3 -5 13 -10 21 -10 8 0 14 5 14 10 0 6 -9 10 -21 10
-11 0 -17 -4 -14 -10z"/>
<path d="M21966 13553 c-12 -12 -6 -33 9 -33 8 0 15 6 15 14 0 17 -14 28 -24
19z"/>
<path d="M21798 13543 c7 -3 16 -2 19 1 4 3 -2 6 -13 5 -11 0 -14 -3 -6 -6z"/>
<path d="M21056 13518 c-3 -13 -6 -32 -6 -43 1 -18 2 -17 15 5 16 28 19 60 6
60 -5 0 -11 -10 -15 -22z"/>
<path d="M22631 13494 c0 -11 3 -14 6 -6 3 7 2 16 -1 19 -3 4 -6 -2 -5 -13z"/>
<path d="M21091 13469 c-17 -40 -10 -45 11 -9 9 16 14 32 10 34 -4 3 -14 -9
-21 -25z"/>
<path d="M21910 13490 c0 -5 4 -10 9 -10 5 0 7 -9 4 -20 -7 -26 3 -26 17 0 8
15 6 21 -10 30 -13 7 -20 7 -20 0z"/>
<path d="M21977 13493 c-11 -10 13 -32 28 -27 8 3 11 12 8 20 -5 15 -25 19
-36 7z"/>
<path d="M21815 13480 c-3 -5 3 -10 15 -10 12 0 18 5 15 10 -3 6 -10 10 -15
10 -5 0 -12 -4 -15 -10z"/>
<path d="M21596 13468 c3 -5 -6 -6 -21 -2 -15 4 -30 2 -34 -3 -3 -6 -23 -14
-45 -19 -24 -6 -44 -18 -53 -34 -13 -22 -13 -23 0 -7 8 9 21 17 29 17 8 0 19
5 25 11 22 22 156 24 212 3 28 -10 51 -21 51 -25 0 -4 8 -10 17 -13 16 -6 16
-6 0 12 -9 10 -15 21 -12 23 2 3 -4 5 -13 6 -9 0 -30 5 -47 11 -52 18 -115 30
-109 20z"/>
<path d="M22015 13441 c-6 -11 9 -23 19 -14 9 9 7 23 -3 23 -6 0 -12 -4 -16
-9z"/>
<path d="M21052 13401 c0 -9 -3 -32 -6 -51 l-7 -35 14 31 c25 54 28 71 13 71
-8 0 -14 -7 -14 -16z"/>
<path d="M21985 13390 c3 -5 8 -10 11 -10 2 0 4 5 4 10 0 6 -5 10 -11 10 -5 0
-7 -4 -4 -10z"/>
<path d="M22030 13390 c0 -5 5 -10 10 -10 6 0 10 5 10 10 0 6 -4 10 -10 10 -5
0 -10 -4 -10 -10z"/>
<path d="M22125 13384 l-30 -13 34 -1 c31 0 33 -2 27 -27 -4 -19 -3 -23 2 -14
8 11 10 11 15 0 4 -10 6 -10 6 2 1 9 -5 28 -12 41 -11 23 -14 23 -42 12z"/>
<path d="M21800 13387 c0 -4 8 -16 18 -26 9 -11 23 -27 30 -35 7 -9 18 -16 24
-16 5 0 2 8 -8 18 -11 9 -29 28 -42 42 -12 13 -22 21 -22 17z"/>
<path d="M21920 13379 c0 -5 5 -7 10 -4 6 3 10 8 10 11 0 2 -4 4 -10 4 -5 0
-10 -5 -10 -11z"/>
<path d="M21365 13321 c-9 -22 -15 -45 -13 -52 2 -7 12 9 21 36 20 61 16 68
-8 16z"/>
<path d="M21568 13283 c7 -3 16 -2 19 1 4 3 -2 6 -13 5 -11 0 -14 -3 -6 -6z"/>
<path d="M21880 13280 c0 -5 5 -10 11 -10 5 0 7 5 4 10 -3 6 -8 10 -11 10 -2
0 -4 -4 -4 -10z"/>
<path d="M22179 13268 c-6 -21 -5 -38 2 -38 5 0 9 9 9 20 0 16 -7 28 -11 18z"/>
<path d="M21335 13230 c3 -5 8 -10 11 -10 2 0 4 5 4 10 0 6 -5 10 -11 10 -5 0
-7 -4 -4 -10z"/>
<path d="M22210 13214 c0 -8 5 -12 10 -9 6 3 10 10 10 16 0 5 -4 9 -10 9 -5 0
-10 -7 -10 -16z"/>
<path d="M22860 13202 c0 -5 -14 -15 -30 -22 -28 -12 -29 -14 -13 -25 31 -20
108 -45 140 -45 18 0 35 -4 38 -10 3 -5 16 -10 28 -10 18 0 19 2 7 11 -11 8
-7 9 17 5 18 -3 35 -1 38 4 3 6 36 11 73 11 113 2 138 16 31 17 -97 1 -207 21
-257 46 -41 21 -72 28 -72 18z"/>
<path d="M21343 13150 c0 -25 2 -35 4 -22 2 12 2 32 0 45 -2 12 -4 2 -4 -23z"/>
<path d="M22211 13144 c-48 -50 -48 -74 0 -28 31 29 54 63 47 69 -2 2 -23 -16
-47 -41z"/>
<path d="M22135 13140 c-3 -5 1 -13 10 -16 22 -9 29 1 11 15 -10 8 -16 9 -21
1z"/>
<path d="M24490 13140 c0 -5 5 -10 11 -10 5 0 7 5 4 10 -3 6 -8 10 -11 10 -2
0 -4 -4 -4 -10z"/>
<path d="M22640 13120 c0 -5 5 -10 11 -10 5 0 7 5 4 10 -3 6 -8 10 -11 10 -2
0 -4 -4 -4 -10z"/>
<path d="M22120 13087 c0 -8 -12 -20 -27 -28 -16 -8 -39 -24 -52 -36 -14 -12
-28 -20 -32 -18 -4 3 -9 -2 -13 -10 -8 -22 -63 -20 -69 3 -3 10 -5 5 -6 -12
-1 -27 0 -28 35 -23 20 3 69 29 110 57 41 27 80 50 86 50 7 0 6 5 -2 15 -15
19 -30 19 -30 2z"/>
<path d="M21580 13063 c0 -4 5 -15 10 -23 8 -13 10 -13 10 2 0 9 -4 20 -10 23
-5 3 -10 3 -10 -2z"/>
<path d="M21156 13003 c-6 -14 -5 -15 5 -6 7 7 10 15 7 18 -3 3 -9 -2 -12 -12z"/>
<path d="M21140 12970 c0 -5 5 -10 10 -10 6 0 10 5 10 10 0 6 -4 10 -10 10 -5
0 -10 -4 -10 -10z"/>
<path d="M21140 12936 c0 -9 40 -13 46 -5 3 5 -6 9 -20 9 -14 0 -26 -2 -26 -4z"/>
<path d="M21101 12902 c0 -13 -5 -20 -11 -17 -6 4 -10 -6 -10 -22 l0 -27 16
22 c8 12 13 32 11 45 l-4 22 -2 -23z"/>
<path d="M21215 12870 c3 -5 8 -10 11 -10 2 0 4 5 4 10 0 6 -5 10 -11 10 -5 0
-7 -4 -4 -10z"/>
<path d="M21059 12856 c-8 -8 12 -150 22 -161 6 -6 8 15 6 55 -4 65 -18 116
-28 106z"/>
<path d="M21218 12833 c6 -2 18 -2 25 0 6 3 1 5 -13 5 -14 0 -19 -2 -12 -5z"/>
<path d="M21133 12810 c-4 -15 -11 -20 -24 -17 -12 3 -19 0 -19 -10 0 -8 4
-12 9 -9 14 9 19 -17 7 -37 -8 -13 -8 -20 4 -27 10 -6 11 -10 3 -10 -7 0 -13
-4 -13 -10 0 -12 11 -13 30 0 12 7 12 12 2 22 -17 17 -15 31 3 24 18 -7 21 20
3 28 -9 3 -8 8 5 16 19 12 23 35 6 45 -6 4 -13 -3 -16 -15z"/>
<path d="M22008 12783 c7 -3 16 -2 19 1 4 3 -2 6 -13 5 -11 0 -14 -3 -6 -6z"/>
<path d="M21160 12773 c0 -3 11 -21 24 -38 19 -24 22 -35 13 -44 -8 -8 -8 -11
1 -11 7 0 12 -4 12 -10 0 -13 -37 -13 -45 0 -4 6 -1 17 5 25 10 12 9 15 -4 15
-9 0 -16 -7 -16 -15 0 -9 -8 -19 -17 -22 -10 -4 -21 -11 -25 -17 -5 -7 -8 -4
-8 7 0 9 -4 17 -10 17 -12 0 -13 -19 -1 -73 5 -23 15 -68 21 -99 6 -32 17 -70
25 -85 7 -16 20 -44 30 -65 23 -51 86 -106 134 -117 48 -10 127 13 168 50 15
13 33 29 39 35 25 22 84 124 105 180 11 33 27 75 35 94 7 19 13 46 13 60 0 22
-1 23 -10 7 -7 -12 -17 -16 -31 -11 -17 5 -19 3 -13 -18 3 -12 3 -18 -2 -12
-14 19 -71 44 -95 41 -12 -1 -23 3 -23 8 -1 20 -24 50 -32 41 -4 -5 -2 -11 5
-13 17 -6 15 -23 -3 -23 -8 0 -15 5 -15 11 0 5 -4 8 -10 4 -5 -3 -7 -12 -4
-20 4 -8 10 -13 14 -10 13 8 21 -27 9 -41 -6 -7 -8 -17 -5 -22 3 -5 -6 -7 -19
-4 -21 4 -23 7 -14 24 6 10 8 24 6 31 -2 7 -12 -4 -22 -23 -15 -28 -20 -31
-23 -16 -2 10 1 23 7 29 13 13 14 37 2 37 -5 0 -12 -14 -16 -31 -6 -28 -10
-31 -37 -25 -17 3 -34 6 -39 6 -21 0 -6 28 18 35 19 4 23 9 14 14 -17 11 -53
1 -68 -18 -11 -14 -12 -14 -13 1 0 9 5 18 11 20 6 2 -6 20 -28 39 -22 20 -37
41 -35 47 2 7 -3 12 -12 12 -9 0 -16 -3 -16 -7z m10 -133 c0 -11 -7 -20 -15
-20 -15 0 -21 21 -8 33 12 13 23 7 23 -13z m365 1 c3 -5 1 -12 -5 -16 -5 -3
-10 1 -10 9 0 18 6 21 15 7z m-415 -17 c0 -8 -4 -12 -10 -9 -5 3 -10 10 -10
16 0 5 5 9 10 9 6 0 10 -7 10 -16z m380 -18 c0 -16 -18 -31 -27 -22 -8 8 5 36
17 36 5 0 10 -6 10 -14z m-210 -21 c0 -8 -4 -15 -10 -15 -5 0 -10 7 -10 15 0
8 5 15 10 15 6 0 10 -7 10 -15z m50 0 c0 -8 -4 -15 -10 -15 -5 0 -10 7 -10 15
0 8 5 15 10 15 6 0 10 -7 10 -15z m230 -15 c0 -5 -4 -10 -10 -10 -5 0 -10 5
-10 10 0 6 5 10 10 10 6 0 10 -4 10 -10z m-437 -29 c2 -10 1 -25 -4 -32 -6
-10 -9 -4 -9 19 0 36 5 42 13 13z m187 15 c0 -3 -4 -8 -10 -11 -5 -3 -10 -1
-10 4 0 6 5 11 10 11 6 0 10 -2 10 -4z m61 -59 c-10 -9 -11 -8 -5 6 3 10 9 15
12 12 3 -3 0 -11 -7 -18z m-184 -19 c-3 -8 -6 -5 -6 6 -1 11 2 17 5 13 3 -3 4
-12 1 -19z m323 -38 c0 -5 -5 -10 -11 -10 -5 0 -7 5 -4 10 3 6 8 10 11 10 2 0
4 -4 4 -10z"/>
<path d="M21288 12753 c6 -2 18 -2 25 0 6 3 1 5 -13 5 -14 0 -19 -2 -12 -5z"/>
<path d="M21426 12741 c-4 -7 -5 -15 -2 -18 9 -9 19 4 14 18 -4 11 -6 11 -12
0z"/>
<path d="M21256 12730 c6 -8 13 -22 16 -30 3 -10 6 -7 11 9 3 13 3 20 0 17 -4
-3 -13 0 -22 7 -14 10 -14 10 -5 -3z"/>
<path d="M21355 12700 c3 -5 15 -10 26 -10 11 0 17 5 14 10 -3 6 -15 10 -26
10 -11 0 -17 -4 -14 -10z"/>
<path d="M20891 12634 c0 -11 3 -14 6 -6 3 7 2 16 -1 19 -3 4 -6 -2 -5 -13z"/>
<path d="M19910 11355 c-7 -9 -8 -15 -2 -15 5 0 12 7 16 15 3 8 4 15 2 15 -2
0 -9 -7 -16 -15z"/>
<path d="M17541 10704 c0 -11 3 -14 6 -6 3 7 2 16 -1 19 -3 4 -6 -2 -5 -13z"/>
<path d="M17550 10640 c0 -5 5 -10 10 -10 6 0 10 5 10 10 0 6 -4 10 -10 10 -5
0 -10 -4 -10 -10z"/>
<path d="M26630 14344 c-51 -44 -111 -184 -126 -299 -11 -81 -11 -90 -4 -100
4 -5 10 -34 13 -64 l6 -54 -27 26 c-33 31 -44 34 -40 10 1 -10 -1 -23 -5 -30
-4 -6 4 -24 18 -41 34 -41 47 -79 39 -120 l-7 -36 -26 31 c-14 16 -32 38 -38
49 -7 10 -12 15 -11 9 1 -5 -2 -18 -7 -28 -7 -17 2 -40 45 -117 22 -38 25 -92
10 -149 -5 -20 -23 -96 -41 -170 -17 -74 -35 -141 -39 -150 -14 -25 -50 -139
-50 -156 0 -8 -5 -15 -11 -15 -6 0 -9 -6 -6 -14 3 -7 0 -19 -6 -25 -6 -6 -7
-11 -3 -11 5 0 3 -7 -4 -15 -7 -8 -10 -22 -6 -30 3 -8 2 -15 -2 -15 -9 0 -16
-75 -17 -177 0 -40 -2 -73 -5 -73 -3 0 -5 -16 -6 -35 0 -19 1 -35 2 -35 9 0
122 195 166 285 29 61 55 112 58 115 3 3 6 14 8 25 2 11 10 34 18 52 8 17 17
45 20 62 4 17 11 31 17 31 6 0 8 3 4 6 -3 4 0 19 8 33 17 33 55 146 55 163 0
7 7 26 16 43 8 16 18 50 21 75 3 25 12 54 19 65 6 11 15 36 19 55 4 19 22 98
40 175 38 161 51 269 54 446 2 131 -5 168 -41 207 -30 32 -87 30 -128 -4z
m-35 -712 c-2 -2 7 -23 20 -47 20 -38 20 -42 4 -32 -10 6 -16 13 -14 15 2 3
-5 22 -15 43 -24 45 -25 54 -6 37 8 -7 13 -15 11 -16z m68 -157 c-7 -21 -13
-19 -13 6 0 11 4 18 10 14 5 -3 7 -12 3 -20z"/>
<path d="M29075 13749 c-4 -6 -5 -12 -2 -15 2 -3 7 2 10 11 7 17 1 20 -8 4z"/>
<path d="M29479 13608 c-7 -18 -14 -36 -17 -40 -2 -5 1 -8 7 -8 6 0 11 6 11
13 0 6 7 24 14 40 8 15 11 27 6 27 -4 0 -14 -15 -21 -32z"/>
<path d="M26168 13290 c-1 -32 0 -56 4 -52 8 9 15 112 6 112 -3 0 -8 -27 -10
-60z"/>
<path d="M26337 13263 c-3 -38 -3 -70 -1 -72 8 -8 14 5 18 40 3 19 5 34 6 34
1 0 3 15 5 33 1 20 -2 32 -10 32 -8 0 -14 -24 -18 -67z"/>
<path d="M27550 13250 c0 -5 5 -10 11 -10 5 0 7 5 4 10 -3 6 -8 10 -11 10 -2
0 -4 -4 -4 -10z"/>
<path d="M27864 13229 c-3 -6 -21 -52 -38 -102 -49 -138 -98 -226 -177 -312
-37 -40 -110 -135 -104 -135 3 0 -2 -11 -11 -25 -10 -15 -12 -25 -5 -25 6 0
11 -6 11 -12 0 -14 26 -40 82 -82 35 -26 38 -26 61 -11 13 8 31 13 40 9 10 -3
21 2 29 15 7 12 18 21 24 21 23 0 120 111 107 124 -3 3 1 6 10 6 21 0 21 -5
-2 58 -41 112 -51 315 -22 445 9 38 8 46 -5 26z"/>
<path d="M28240 13176 c0 -9 5 -16 10 -16 6 0 10 4 10 9 0 6 -4 13 -10 16 -5
3 -10 -1 -10 -9z"/>
<path d="M29166 13085 c-9 -26 -7 -32 5 -12 6 10 9 21 6 23 -2 3 -7 -2 -11
-11z"/>
<path d="M29152 13020 c0 -14 2 -19 5 -12 2 6 2 18 0 25 -3 6 -5 1 -5 -13z"/>
<path d="M28152 12754 c-11 -12 -11 -18 -2 -29 19 -22 37 -18 34 8 -1 12 -3
25 -3 30 -1 11 -15 8 -29 -9z"/>
<path d="M26070 12350 c0 -5 5 -10 10 -10 6 0 10 5 10 10 0 6 -4 10 -10 10 -5
0 -10 -4 -10 -10z"/>
<path d="M26046 12267 c-16 -34 -39 -75 -50 -92 -12 -16 -28 -42 -36 -56 -54
-93 -65 -109 -78 -109 -7 0 -12 -6 -9 -12 10 -32 36 -5 87 88 30 55 72 123 93
151 33 46 49 94 30 92 -5 0 -21 -28 -37 -62z"/>
<path d="M29123 12185 c0 -22 2 -30 4 -17 2 12 2 30 0 40 -3 9 -5 -1 -4 -23z"/>
<path d="M26120 11988 c0 -8 -12 -37 -26 -64 -74 -137 -84 -158 -77 -164 4 -4
23 -12 41 -18 36 -12 142 3 142 21 0 5 11 7 25 5 14 -3 25 -3 25 0 0 4 -17 31
-39 62 -21 30 -46 78 -56 105 -20 55 -35 78 -35 53z"/>
<path d="M24634 11865 c-4 -8 -12 -15 -20 -15 -8 0 -14 -7 -14 -15 0 -8 -7
-15 -15 -15 -8 0 -12 -6 -9 -13 2 -7 -16 -35 -41 -60 -26 -27 -43 -52 -39 -59
5 -7 3 -8 -6 -3 -8 5 -11 3 -8 -5 2 -6 -11 -28 -29 -47 -18 -19 -33 -41 -33
-49 0 -8 -4 -13 -8 -10 -4 2 -9 -5 -9 -16 -1 -12 -6 -24 -10 -27 -14 -10 -63
-87 -63 -98 0 -7 -6 -18 -12 -25 -15 -15 -29 -40 -89 -158 -51 -98 -70 -146
-61 -155 7 -6 7 -9 11 -55 2 -21 5 -17 20 21 44 113 186 378 335 624 49 83 93
152 96 155 9 7 21 40 14 40 -2 0 -7 -7 -10 -15z"/>
<path d="M24957 11548 c-8 -24 -18 -51 -22 -60 -4 -10 -3 -18 3 -18 11 0 47
109 39 117 -3 2 -12 -15 -20 -39z"/>
<path d="M28490 11334 c0 -8 5 -12 10 -9 6 3 10 10 10 16 0 5 -4 9 -10 9 -5 0
-10 -7 -10 -16z"/>
<path d="M28485 11300 c4 -6 11 -8 16 -5 14 9 11 15 -7 15 -8 0 -12 -5 -9 -10z"/>
<path d="M23552 10993 c-6 -10 -22 -40 -36 -67 -15 -28 -24 -55 -22 -60 3 -6
8 -1 11 11 4 13 12 20 18 16 6 -4 8 0 5 9 -4 8 5 34 18 58 14 24 22 45 20 47
-2 3 -9 -4 -14 -14z"/>
<path d="M23454 10822 c-12 -7 -29 -52 -20 -52 2 0 11 14 20 30 8 17 14 30 13
30 -1 0 -7 -4 -13 -8z"/>
<path d="M23402 10738 c-6 -13 -21 -39 -33 -58 -21 -34 -21 -34 0 -10 30 36
62 90 52 90 -4 0 -13 -10 -19 -22z"/>
<path d="M22261 10472 c-6 -12 -11 -27 -11 -34 0 -7 7 0 15 16 9 16 13 31 11
33 -2 3 -9 -4 -15 -15z"/>
<path d="M22467 10459 c-43 -25 -56 -88 -36 -177 13 -65 26 -79 74 -88 22 -4
37 -4 34 0 -4 4 0 28 7 53 20 66 17 118 -8 174 -23 49 -38 57 -71 38z"/>
<path d="M22178 10388 c-32 -42 -68 -115 -98 -198 -13 -36 -32 -79 -41 -96
-16 -29 -16 -33 -1 -48 14 -13 14 -20 4 -34 -7 -9 -15 -24 -18 -32 -17 -49
-71 -144 -87 -155 -14 -10 -15 -14 -5 -18 9 -4 9 -6 1 -6 -7 -1 -10 -8 -7 -16
4 -9 0 -15 -10 -15 -9 0 -16 -7 -16 -16 0 -8 -7 -22 -15 -30 -8 -8 -11 -22 -8
-31 4 -11 3 -14 -5 -9 -8 5 -12 -3 -12 -27 0 -63 13 -98 49 -135 49 -50 73
-62 123 -61 26 1 33 3 18 6 -53 9 -53 14 -2 38 53 25 142 101 142 122 0 6 4
13 8 15 12 4 102 135 102 147 0 6 3 11 8 11 4 0 13 14 21 32 8 17 33 59 57 94
43 62 45 74 14 74 -25 0 -98 72 -111 109 -8 23 -14 29 -20 20 -4 -8 -3 -19 3
-26 6 -8 8 -16 6 -19 -10 -9 -48 48 -60 90 -7 22 -15 43 -19 46 -15 10 -14
157 1 174 7 9 11 19 8 22 -3 2 -16 -10 -30 -28z"/>
<path d="M22242 10380 c0 -14 2 -19 5 -12 2 6 2 18 0 25 -3 6 -5 1 -5 -13z"/>
<path d="M22806 10120 c-11 -3 -15 -9 -10 -13 10 -6 42 9 34 16 -3 3 -14 1
-24 -3z"/>
<path d="M22429 9839 c-13 -23 -32 -53 -41 -68 -32 -48 -39 -61 -33 -61 2 0
17 19 32 43 15 23 30 44 33 47 10 10 41 73 37 76 -2 2 -14 -15 -28 -37z"/>
<path d="M22110 9483 c-14 -7 -18 -13 -10 -13 17 0 47 17 40 23 -3 2 -16 -2
-30 -10z"/>
<path d="M20390 13901 c0 -6 4 -13 10 -16 6 -3 7 1 4 9 -7 18 -14 21 -14 7z"/>
<path d="M17340 13911 c0 -5 5 -13 10 -16 6 -3 10 -2 10 4 0 5 -4 13 -10 16
-5 3 -10 2 -10 -4z"/>
<path d="M16974 13379 c-3 -6 -1 -15 5 -20 6 -5 9 -6 6 -3 -3 4 0 13 6 21 8 9
8 13 1 13 -6 0 -14 -5 -18 -11z"/>
<path d="M22257 13328 c-10 -35 10 -49 42 -29 10 7 10 12 -5 30 -23 27 -30 26
-37 -1z"/>
<path d="M19252 11866 c7 -8 15 -12 17 -11 5 6 -10 25 -20 25 -5 0 -4 -6 3
-14z"/>
<path d="M14541 9864 c0 -11 3 -14 6 -6 3 7 2 16 -1 19 -3 4 -6 -2 -5 -13z"/>
</g>
</svg>
